<?xml version="1.0" standalone="no"?>
<!DOCTYPE svg PUBLIC "-//W3C//DTD SVG 1.1//EN" "http://www.w3.org/Graphics/SVG/1.1/DTD/svg11.dtd" >
<svg xmlns="http://www.w3.org/2000/svg">
<metadata></metadata>
<defs>
<font id="lunaregular" horiz-adv-x="1558" >
<font-face units-per-em="2048" ascent="1638" descent="-410" />
<missing-glyph horiz-adv-x="991" />
<glyph horiz-adv-x="0" />
<glyph unicode="&#xd;" horiz-adv-x="991" />
<glyph horiz-adv-x="0" />
<glyph horiz-adv-x="0" />
<glyph unicode=" "  horiz-adv-x="991" />
<glyph unicode="&#x09;" horiz-adv-x="991" />
<glyph unicode="&#xa0;" horiz-adv-x="991" />
<glyph unicode="!" horiz-adv-x="708" d="M0 994.5q0 95.5 10 193.5q8 66 12.5 129t10.5 129q8 68 18 135.5t21 136.5q10 72 21 142.5t28 142.5q29 135 62.5 265t88.5 257q39 88 90 182q41 77 127 46q55 -23 83 -73t1 -104q-35 -68 -49 -139.5t-37 -142.5q-23 -70 -39 -140.5t-34 -140.5q-35 -135 -53.5 -272 t-34.5 -275q-8 -66 -19.5 -130t-21.5 -130l-43 -270q-10 -57 -20.5 -113.5t-20.5 -113.5q-6 -25 -11.5 -40.5t-14.5 -26.5t-25.5 -19.5t-43.5 -20.5q-41 43 -62 93t-30 106q-14 98 -14 193.5zM4 106q4 10 12.5 20.5t18.5 12.5q33 10 64.5 15.5t66.5 9.5q29 4 49.5 -10.5 t36.5 -34.5q29 -35 2 -80q-6 -10 -13.5 -18.5t-17.5 -24.5h-133q-53 2 -75.5 32.5t-10.5 77.5z" />
<glyph unicode="&#x22;" horiz-adv-x="464" d="M2 2169q0 10 6 22.5t15.5 23.5t20.5 17t22 4q25 -4 49 -8t45 -24l8 -9q18 -51 7 -96t-58 -74q-12 -8 -27.5 -10t-30.5 -6q-12 -2 -16 6t0 19q2 4 5 7l7 7q10 10 18.5 20.5t18.5 20.5q4 6 11.5 13t0.5 18q-4 6 -12 7t-16 3q-12 2 -23 4q-10 2 -18.5 3t-14.5 3 q-18 6 -18 29zM217 2169q0 10 6 22.5t15.5 23.5t20.5 17t22 4q23 -4 48 -8t46 -24l8 -9q18 -51 6 -96t-57 -74q-12 -8 -27.5 -10t-32.5 -6q-10 -2 -15 6t1 19q4 8 10 14q10 10 19.5 20.5t19.5 20.5q4 6 11.5 13t0.5 18q-4 6 -13 7t-17 3l-21 4q-10 2 -18 3t-14 3 q-18 6 -19 29z" />
<glyph unicode="#" horiz-adv-x="2623" d="M2 1153q-10 66 41 98q53 35 110.5 54.5t120.5 23.5q117 4 229.5 6t229.5 6h109q10 111 19 216.5t20 211.5q-10 2 -16.5 3.5t-12.5 3.5q-96 4 -191.5 10t-193.5 10q-47 4 -93 3t-93 1q-43 2 -81 18.5t-75 39.5q-25 16 -12 40q12 29 32.5 47.5t53.5 20.5q96 10 191 17.5 t192 13.5q61 4 123.5 2t123.5 -2h60q4 12 6 21.5t4 17.5q4 111 9 220t12 220q2 29 4 59.5t4 59.5q4 29 20.5 44t38.5 25q51 18 78 -34l16.5 -33t20.5 -29q29 -29 40 -63.5t7 -73.5q-4 -86 -9 -171t-12 -171q-4 -47 -6 -94q123 -8 240 -15.5t240 -17.5q8 53 15 103.5t15 97.5 q14 100 28.5 200.5t31.5 198.5q6 41 20 79t41 71q10 10 19.5 19t19.5 15q59 41 94 -10q41 -61 68.5 -127.5t32.5 -144.5q4 -115 -8.5 -226.5t-30.5 -222.5q-4 -10 -4 -21.5v-21.5q-2 -4 2 -24q43 -4 86 -6.5t86 -6.5q72 -6 140.5 -13t139.5 -15q68 -8 109 -50t71 -96 q10 -16 2 -33.5t-26 -23.5q-29 -10 -53 -6q-86 4 -169 8t-169 6q-59 4 -121 3t-127 -1q-20 -104 -23.5 -206.5t-5.5 -213.5q35 -2 69 -4t66 -6q86 -6 171 -12t171 -17q41 -4 79 -18t75 -29q27 -10 38 -38.5t7 -57.5t-18.5 -42t-46.5 -17q-98 -16 -197.5 -32.5t-200.5 -33.5 q-53 -8 -105 -13t-110 -11v-68q2 -98 3 -195.5t5 -195.5q4 -111 -11 -217.5t-38 -212.5q-2 -4 -4 -8.5t-2 -8.5q-4 -20 -15.5 -35.5t-31.5 -13.5q-16 0 -32.5 9.5t-26.5 21.5q-47 66 -79 137.5t-40 155.5q-12 145 -25.5 289.5t-25.5 291.5q-2 10 -3.5 21.5t-3.5 28.5 q-119 4 -237.5 7t-243.5 7q-2 -35 -4 -69t-4 -66q-2 -154 -15.5 -303.5t-35.5 -300.5q-2 -16 -7.5 -26.5t-21.5 -14.5q-25 -8 -45 20q-37 61 -63.5 127t-30.5 137q-4 106 -6 211t-6 211v98q-37 4 -71 9.5t-69 3.5q-160 -2 -315.5 18.5t-310.5 50.5q-20 4 -41 25.5t-25 44.5z M1073 1348q43 -8 117 -14.5t148.5 -9.5t135 -3t78.5 4q6 102 12.5 203.5t14.5 208.5q-59 0 -117.5 5t-117 9t-118 4t-120.5 -8q-12 -100 -23.5 -198.5t-9.5 -200.5z" />
<glyph unicode="$" horiz-adv-x="1169" d="M0 1225q2 14 12.5 20t30.5 -6q23 -12 34 -43t25 -66q12 -31 22.5 -61.5t22.5 -60.5q57 -158 213 -197q4 -2 6.5 -1t6.5 1q-2 84 12 164t29 160q14 86 26.5 168.5t26.5 166.5q4 25 -18 33q-94 39 -181 115q-49 45 -82.5 99.5t-50.5 119.5q-6 23 -6 48.5t2 49.5 q14 147 100 237.5t209 127.5q18 4 38 8t40 6q18 4 37.5 5t42.5 3q4 23 7 43.5t7 42.5q10 49 18.5 99.5t20.5 99.5q10 35 25.5 67.5t32.5 67.5q12 23 41 15q33 -4 51 -6.5t25.5 -13.5t8.5 -37.5t1 -78.5q-4 -16 -4.5 -38.5t-0.5 -38.5v-215v-39q37 -10 73 -20.5t71 -14.5 q33 -4 50 -14.5t34 -34.5q4 -2 5 -14.5t-1 -16.5q-2 -20 -2 -33.5t-4 -34.5q-4 -16 -12.5 -32.5t-28.5 -20.5q-29 -6 -48.5 2t-54.5 23q-33 16 -48 18t-40 10q-10 -39 -11 -76.5t-7 -74.5q-8 -37 -12 -74t-9 -76q-4 -37 -10 -74.5t-10 -78.5q8 -4 16.5 -9.5t16.5 -9.5 q61 -31 112.5 -73.5t89.5 -100.5q29 -41 44.5 -85t27.5 -91q16 -59 19.5 -120.5t-15.5 -121.5q-25 -84 -64.5 -158.5t-111.5 -131.5q-51 -41 -107.5 -71t-121.5 -42q-27 -4 -31 -10t-6 -35q-10 -78 -27.5 -152.5t-52.5 -146.5q-10 -27 -21.5 -51.5t-21.5 -48.5 q-16 -45 -35 -82q-16 -31 -32.5 -60t-26.5 -33q-8 -10 -15.5 -9t-11.5 12q-16 158 -31.5 312t-1.5 310q-35 18 -67.5 34.5t-63.5 33.5q-111 66 -164 162t-59 223q-2 31 -2 62.5t-2 64.5zM413.5 1862.5q24.5 -64.5 96.5 -93.5q12 82 25.5 162t25.5 164q-10 -4 -14 -4t-8 -4 q-31 -18 -56.5 -41t-48.5 -53q-45 -66 -20.5 -130.5zM651 807q31 4 65 23.5t52 41.5q43 49 59.5 107.5t14.5 122.5q0 51 -10.5 97t-38.5 89q-12 20 -25.5 39t-38.5 33q-20 -141 -43 -276.5t-35 -276.5z" />
<glyph unicode="%" horiz-adv-x="2228" d="M3 41q7 18 15 37q51 104 101.5 206.5t97.5 207.5q41 98 89 189t106 181q78 123 159.5 239t167.5 232q63 86 131 167t138 163q59 68 120.5 134.5t124.5 131.5q76 80 153 161t155 159q113 111 224 219t226 219q23 20 46.5 35.5t56.5 19.5q35 4 49 -2t18 -41q4 -39 2 -77.5 t-6 -79.5q-4 -27 -11 -52.5t-16 -50.5q-2 -14 -10 -29q-100 -154 -212.5 -296t-231.5 -281q-154 -182 -304.5 -363.5t-304.5 -363.5q-92 -111 -185 -220.5t-189 -217.5q-94 -109 -190.5 -213.5t-192.5 -208.5q-41 -47 -83 -91t-83 -89q-4 -4 -8 -9.5t-11 -9.5 q-33 -12 -66.5 -23.5t-68.5 -23.5q-14 23 -7 41zM504 2351q0 57 26.5 111.5t67.5 101.5q39 47 84 85t104 61q27 10 51.5 10t51.5 -15q23 -10 46 -19t46 -22q41 -18 64.5 -51t39.5 -73q10 -29 24.5 -56.5t23.5 -56.5q12 -41 2 -88q-14 -59 -50 -103.5t-84 -78.5 q-27 -20 -57 -35t-63 -29q-43 -16 -92.5 -14t-96.5 17t-87 44t-64 64q-20 29 -28.5 62.5t-8.5 84.5zM702 2417.5q-6 -37.5 17 -76.5q6 -12 18.5 -23.5t24.5 -13.5q41 -4 78 7t65 44q23 23 25 51.5t6 57.5v33.5t-4 33.5q-4 14 -14.5 26.5t-23.5 20t-27.5 9.5t-24.5 -4 q-29 -23 -56.5 -44.5t-50.5 -50.5q-27 -33 -33 -70.5zM1343 489q4 25 3.5 50.5t3.5 50.5q4 45 25.5 80t54.5 63q23 20 43 43t43 41q39 29 81 35q59 10 114 -8t104 -49q29 -18 54 -42t48 -48q31 -35 47 -81t18.5 -96.5t-9 -98.5t-36.5 -83q-18 -29 -46.5 -49.5t-75.5 -36.5 q-53 -23 -114 -18.5t-120 26.5q-57 20 -109.5 49t-93.5 76q-41 43 -35 96zM1461 539.5q-3 -15.5 1 -28.5t15 -19q29 -20 60.5 -38t64.5 -28q41 -14 78.5 -6t66.5 43q10 10 16 26.5t2 26.5q-12 41 -35.5 70.5t-64.5 46.5q-31 12 -57.5 4t-55.5 -14q-16 -8 -30.5 -14.5 t-28.5 -16.5q-12 -8 -20.5 -22.5t-11.5 -30z" />
<glyph unicode="&#x26;" horiz-adv-x="3299" d="M14 647q-23 186 30.5 346t170.5 301q37 43 76 85t78 85q74 86 170 152q41 29 85 50.5t91 35.5q23 8 44 16t44 19q41 16 85 19t89 3q16 0 34.5 1t41.5 3q-10 23 -19.5 42.5t-19.5 39.5q-6 12 -11.5 24.5t-11.5 24.5q-41 98 -27.5 189.5t56.5 181.5q45 94 110 178 q53 66 114 119t138 90q35 16 69 33.5t69 30.5q90 35 180 36t182 -22q51 -14 98.5 -34.5t87.5 -55.5q39 -35 73 -72t57 -84q10 -23 23 -41t30 -37q16 -20 24.5 -40.5t3.5 -49.5q-2 -10 0 -19t2 -20q0 -33 -8 -61.5t-32 -50.5q-29 -23 -54.5 -19t-38.5 39q-10 35 -28.5 64.5 t-36.5 58.5q-43 70 -105.5 97.5t-142.5 19.5q-135 -16 -234.5 -85t-168.5 -183q-18 -29 -33 -57.5t-27 -59.5q-27 -57 -13.5 -110.5t44.5 -102.5q6 -10 18.5 -17.5t22.5 -15.5q35 -20 75 -29.5t80 -19.5q23 -4 42.5 -12.5t39.5 -16.5q2 -29 -6 -50t-18 -44q-8 -16 -27 -20 q-33 -10 -65.5 -19.5t-67.5 -1.5q-4 2 -8 1t-8 -1q-53 -12 -105.5 -12t-105.5 -4q-203 -10 -377 -113q-66 -41 -127 -83t-113 -101q-78 -92 -123 -195.5t-45 -226.5q0 -205 146 -354q55 -53 123.5 -80t146.5 -31t145.5 21.5t127.5 72.5q51 39 98 86q35 35 61.5 78t48.5 88 q25 53 50.5 106.5t54.5 106.5q12 29 27.5 53.5t27.5 50.5q4 10 6 23.5t6 28.5q-47 6 -89 2t-83 -17q-117 -35 -235 -86q-33 -14 -60.5 -34.5t-50.5 -51.5q-4 -8 -15 -11t-20 -1q-12 0 -15 10.5t-3 20.5q-2 29 9.5 53.5t27.5 44.5q82 104 188.5 166.5t237.5 87.5q84 14 166 9 t164 -21q102 -20 190 -61.5t174 -98.5q100 -66 203.5 -122t214.5 -103q88 -35 175 -40t179 13q16 4 33.5 8t34.5 8q61 14 96 52.5t51 95.5q4 18 5 35.5t-5 36.5q-8 18 -17 30.5t-30 20.5q-20 6 -37.5 20.5t-33.5 26.5q-20 14 -9 43q10 23 24.5 41t43.5 22q43 6 67 -18 q18 -18 38 -34.5t34 -37.5q45 -68 46 -139.5t-15 -144.5q-14 -59 -46 -105.5t-77 -85.5q-61 -49 -129 -87t-145 -52q-84 -16 -164 -7t-158 38q-125 45 -236.5 109.5t-216.5 141.5q-41 31 -85 57.5t-87 55.5q-6 4 -14 7t-18 7q-14 -29 -26.5 -54t-27.5 -52 q-41 -84 -80.5 -167t-78.5 -169q-57 -123 -138 -220t-196 -171q-33 -20 -65.5 -42t-67.5 -38q-131 -61 -268.5 -80.5t-280.5 12.5q-41 10 -82 21.5t-82 26.5q-70 23 -125 62.5t-106 90.5q-35 35 -64 71t-57 77q-45 66 -68.5 134t-34.5 144z" />
<glyph unicode="'" horiz-adv-x="233" d="M2 2169q0 10 6 22.5t15.5 23.5t20.5 17t22 4q25 -4 49 -8t45 -24l8 -9q18 -51 7 -96t-58 -74q-12 -8 -27.5 -10t-30.5 -6q-12 -2 -16 6t0 19q2 4 5 7l7 7q10 10 18.5 20.5t18.5 20.5q4 6 11.5 13t0.5 18q-4 6 -12 7t-16 3q-12 2 -23 4q-10 2 -18.5 3t-14.5 3 q-18 6 -18 29z" />
<glyph unicode="(" horiz-adv-x="1705" />
<glyph unicode=")" horiz-adv-x="1705" />
<glyph unicode="*" horiz-adv-x="1216" d="M0 2218q-2 25 20 39q12 4 17 6q84 29 167 54.5t171 35.5q2 0 14 4q-35 43 -67.5 85t-67.5 83q-4 4 -9 10.5t-9 12.5q-8 14 -10.5 27.5t7.5 27.5t23.5 12t24.5 -6q84 -29 143 -90l127 -127q23 27 42 51.5t40 48.5q47 53 93 106.5t93 106.5q4 4 8 9.5t11 9.5l20 12t21 -2 q10 -8 17 -19.5t9 -21.5q6 -39 -22 -80q-33 -45 -62.5 -90t-60.5 -90q-4 -4 -7 -10t-10 -17h50q47 -4 94 -5t94 -5q16 -2 30.5 -8t28.5 -14q14 -6 25 -23q12 -16 6 -30.5t-29 -18.5q-57 -6 -113.5 -12t-115.5 -13q-23 -4 -46.5 -6t-51.5 -6q10 -10 15 -16t11 -13 q43 -35 86 -70.5t84 -72.5q18 -16 34 -34.5t24 -43.5q12 -33 -11 -55q-10 -10 -22 -9t-25 5q-39 10 -71.5 32.5t-63.5 47.5q-41 35 -84 67.5t-86 67.5q-12 8 -20 14q-23 -29 -43.5 -55.5t-42.5 -52.5q-16 -20 -33.5 -38t-34.5 -38q-25 -31 -50.5 -62.5t-49.5 -62.5 q-6 -6 -13.5 -10t-13.5 -8q-4 6 -9 12t-7 14q-18 78 26 152q23 37 45.5 72.5t45.5 72.5q6 10 12 20.5t14 22.5q-35 4 -65.5 -2t-61.5 -10q-53 -6 -108.5 -14.5t-110.5 -12.5q-14 -2 -28.5 1t-30.5 5q-25 2 -27 27z" />
<glyph unicode="+" horiz-adv-x="1529" d="M0 1129.5q6 23.5 41 39.5q18 10 38.5 14.5t43.5 8.5q106 12 212.5 23.5t213.5 21.5q6 2 11 4t13 6q0 10 2.5 22.5t-0.5 24.5q-23 223 25 449q10 53 36 68.5t73 -11.5q53 -29 85.5 -69.5t34.5 -108.5q4 -57 16.5 -114.5t22.5 -116.5q6 -29 10.5 -59.5t10.5 -67.5 q104 4 203.5 4t193.5 37q14 4 27.5 8t27.5 6q35 8 63 0t42 -47q-4 -41 -25.5 -67.5t-56.5 -49.5q-70 -41 -143.5 -63.5t-155.5 -18.5q-35 0 -71 -4t-76 -8q-2 -25 -3.5 -46.5t-1.5 -41.5q6 -106 7.5 -212t-15.5 -210q-12 -88 -41 -182q-10 -35 -30.5 -39t-47.5 24 q-23 27 -36 68q-47 135 -86 269t-52 278q-2 12 -5 24.5t-7 32.5q-47 -4 -95 -7t-95 -7q-76 -4 -151 -4t-146 18q-25 6 -48.5 21.5t-41.5 33.5q-29 25 -23 48.5z" />
<glyph unicode="," horiz-adv-x="423" d="M0 109q0 20 13.5 45.5t33 47t42 35t42.5 9.5q51 -8 103.5 -15.5t93.5 -48.5q12 -12 16 -20q41 -104 15.5 -198.5t-119.5 -153.5q-27 -16 -58.5 -22.5t-64.5 -10.5q-25 -4 -33 11t2 38q4 10 10 16t13 15q20 23 39.5 43t37.5 43q12 14 26.5 29.5t0.5 33.5q-8 10 -26.5 14.5 t-34.5 8.5q-23 2 -46 6q-18 4 -36.5 7t-30.5 7q-20 6 -29.5 22.5t-9.5 37.5z" />
<glyph unicode="-" d="M-0.5 1110q2.5 25 29.5 35q35 12 70.5 20.5t72.5 12.5q203 16 401.5 28.5t395.5 26.5q66 0 125 1t118 -3q51 -2 101.5 -8t99.5 -13q23 -4 38 -15t19 -34q2 -23 -3 -43t-27 -33q-20 -12 -40 -23t-42 -18q-119 -37 -239 -45t-242 -12q-129 -4 -255 -6t-255 -4h-123t-121 31 q-59 29 -103 61q-23 16 -20.5 41z" />
<glyph unicode="." horiz-adv-x="376" d="M6.5 94q-4.5 27 11.5 47q12 18 27.5 33.5l32.5 32.5q10 12 21.5 23.5t25.5 21.5q37 25 76 33q31 8 59.5 -2.5t54.5 -26.5q29 -16 40 -40.5t1 -51.5q0 -37 -6 -62.5t-19.5 -43t-35 -29t-53.5 -19.5q-59 -16 -112.5 -12t-100.5 51q-18 18 -22.5 45z" />
<glyph unicode="/" horiz-adv-x="1673" d="M0 25.5q-2 11.5 2 23.5q14 43 27.5 87t27.5 89q25 78 47.5 156t51.5 156q41 115 89 223t103 215q29 57 58.5 114.5t62.5 112.5q37 66 76 129.5t78 128.5q59 98 116.5 196.5t116.5 196.5q61 104 124.5 207t127.5 207q35 57 68.5 114.5t68.5 117.5q41 72 93.5 131 t115.5 110q16 16 35.5 14.5t38.5 -12.5q31 -14 53 -55t18 -86q-10 -39 -23 -86t-28 -98q-20 -76 -54 -144.5t-69 -138.5q-88 -174 -175 -343t-179 -341q-45 -80 -94 -158t-96 -157q-47 -78 -94.5 -158t-94.5 -158q-45 -74 -88 -145.5t-84 -145.5q-37 -59 -78 -115.5 t-94 -103.5q-8 -6 -13 -15t-13 -18q-23 -25 -45.5 -48t-45.5 -48q-20 -23 -39.5 -45t-46.5 -37q-29 -14 -48 -35.5t-40 -44.5q-8 -10 -18 -14t-23 4q-14 6 -16 17.5z" />
<glyph unicode="0" horiz-adv-x="2076" d="M0 1426.5q-2 62.5 8 123.5q25 145 58.5 287.5t87.5 280.5q59 150 133.5 289t175.5 264q82 102 180 185t217 142q98 49 202.5 60.5t202 -12t184.5 -79t153 -139.5q207 -266 305 -583q33 -104 51 -212t29 -218q8 -84 16 -166t14 -168q2 -16 1 -32t-1 -32 q8 -170 -21.5 -333.5t-82.5 -325.5q-47 -141 -114.5 -269.5t-172.5 -238.5q-80 -86 -174 -145.5t-211 -84.5q-123 -29 -247 -21.5t-242 50.5q-86 31 -162 80t-141 113q-104 104 -187.5 225t-142.5 258q-59 139 -85 283.5t-30 294.5q-2 61 -4 123.5zM549 1262 q2 -240 104 -455q16 -31 33 -60.5t33 -60.5q6 2 14 6q2 6 4 11.5t4 11.5q25 90 48.5 179t52.5 177q51 164 103 326t106 323q31 98 60.5 194.5t62.5 194.5q39 121 87 236t113 223q6 12 11.5 24.5t11.5 26.5q-39 47 -85 79t-104 48q-45 -35 -89 -69.5t-85 -71.5 q-66 -59 -122 -123.5t-101 -142.5q-66 -111 -109 -228.5t-77 -240.5q-41 -150 -58.5 -302.5t-17.5 -305.5zM937 484.5q5 -13.5 22.5 -24.5t50.5 -30q51 -29 117.5 -42t134 -7t133 35.5t114.5 89.5q23 27 41.5 54.5t36.5 55.5q27 41 55.5 82t45.5 86q63 158 98 320t29 334 q-4 133 -18.5 261t-49.5 257q-29 106 -69 205.5t-97 193.5q-6 10 -15.5 22.5t-23.5 28.5q-8 -20 -13 -33.5t-9 -25.5q-18 -57 -35 -113.5t-35 -113.5l-78 -234t-78 -233q-45 -141 -89 -279.5t-87 -279.5q-41 -131 -81 -261.5t-83 -259.5q-12 -37 -17 -56t0 -32.5z" />
<glyph unicode="1" horiz-adv-x="886" d="M5 2489q-15 34 9 69q20 27 43 47q61 53 125 104.5t127 102.5q61 47 123 94t123 94q12 10 25.5 19.5t25.5 19.5q18 16 40 20.5t44 8.5q10 2 20.5 -5t16.5 -16q35 -53 48 -113.5t18 -123.5q6 -104 -1.5 -204.5t-21.5 -205.5q-14 -104 -29.5 -209.5t-25.5 -210.5 q-10 -88 -14.5 -175t-8.5 -175q-6 -160 -10 -318.5t-10 -318.5q-4 -117 -6 -232.5t-19 -232.5q-8 -55 -11 -110.5t-9 -110.5q-2 -18 -7.5 -36.5t-9.5 -39.5q-4 -14 -6 -28.5t-6 -28.5t-7 -27.5t-9 -23.5q-12 -23 -24.5 -43.5t-27.5 -38.5q-14 -23 -38 -31q-41 -10 -79 -5 t-67 44q-14 18 -26.5 37.5t-20.5 40.5q-33 90 -55.5 179t-22.5 186q0 23 -4 47t-6 49q-2 59 -4 116.5t-4 116.5v202.5t4 203.5q2 78 6 156.5t10 156.5q4 66 9.5 132.5t17.5 131.5q10 57 12 114.5t14 113.5q16 86 32 170t36 168q23 92 47 183t51 189q-23 -20 -41 -33.5 t-34 -29.5q-47 -49 -101.5 -92t-95.5 -101q-43 -55 -109 -41q-41 10 -56 44z" />
<glyph unicode="2" horiz-adv-x="1605" d="M0 227q-2 66 6 128.5t19 127.5q6 41 18 79t23 77q23 92 45 184t49 185q23 78 56.5 153.5t74.5 147.5q27 41 51.5 84t50.5 86q35 57 70 113.5t74 111.5q45 66 92 132.5t94 131.5q29 39 51 80q53 92 104.5 182t98.5 183q37 72 60.5 147.5t27.5 157.5q4 33 -4 55 q-20 68 -94 68q-66 0 -126.5 -20.5t-117.5 -53.5q-72 -39 -129 -93.5t-105 -119.5q-23 -31 -43 -61.5t-43 -59.5q-12 -18 -37.5 -24.5t-54.5 4.5q-23 8 -37 28.5t-10 42.5q4 23 12.5 43.5t16.5 40.5q51 111 131 197t178 155q70 51 146.5 87t162.5 51q72 12 137.5 4 t131.5 -35q20 -8 38.5 -16.5t36.5 -16.5q41 -18 71 -48t52 -67q78 -129 84 -286q2 -72 -6 -141.5t-29 -137.5q-57 -201 -151 -381t-211 -350q-70 -98 -139.5 -196.5t-134.5 -200.5q-66 -98 -111 -207t-78 -225q-12 -49 -28.5 -97.5t-32.5 -95.5q-4 -16 -8.5 -31.5 t-8.5 -31.5q-10 -35 -18.5 -70t-18.5 -74q29 12 56.5 22.5t54.5 24.5q66 35 135.5 57.5t140.5 45.5q86 29 171 47t174 29q90 8 175 -8.5t165 -63.5q-2 -35 -16.5 -61.5t-49.5 -36.5q-29 -8 -56.5 -11.5t-56.5 -5.5q-59 -4 -116.5 -6t-114.5 -4q-90 -4 -175 -25.5t-171 -38.5 q-41 -8 -81 -23t-81 -30q-84 -29 -156.5 -72.5t-148.5 -84.5q-51 -27 -101.5 -54.5t-103.5 -56.5q-8 8 -15 14t-14 13q-10 12 -21 26.5t-24 26.5q-37 29 -47 66.5t-10 82.5z" />
<glyph unicode="3" horiz-adv-x="1587" d="M6 623q8 74 28.5 143.5t41.5 140.5q4 12 9 23.5t21 13.5t30 -4t24 -22q4 -10 11 -17.5t11 -11.5q-10 -76 -18 -148.5t-17 -144.5q-6 -66 29 -112t98 -62q39 -10 76 -14.5t76 -4.5q61 2 120.5 11.5t117.5 31.5q98 37 169.5 97.5t122.5 152.5q55 102 87 210t32 224 q2 74 -12 145t-53 138q-25 47 -57.5 84t-78.5 66q-23 14 -48 24t-54 15q-63 8 -126.5 16t-129.5 18q-25 4 -50.5 13.5t-49.5 17.5q-41 12 -72 37t-59 55q-10 12 -11.5 36t11.5 40q23 25 47 45.5t61 24.5q51 4 97.5 24.5t91.5 46.5q86 53 135 131t80 170q16 45 15 92.5 t-5 94.5q-2 14 -8 26.5t-15 24.5q-14 27 -36.5 36t-51.5 5q-102 -14 -187 -59.5t-161 -110.5q-27 -23 -51.5 -44.5t-48.5 -43.5q-45 -35 -64 -12q-14 14 -13 31.5t9 33.5q10 23 22.5 44.5t28.5 39.5q133 162 326 254q113 55 242 61q80 4 144.5 -29.5t107.5 -103.5 q150 -244 49 -503q-20 -53 -44 -103.5t-57 -97.5q-4 -4 -7 -10.5t-7 -14.5q23 -10 42.5 -19t39.5 -20q70 -29 124 -77t97 -107q23 -31 46.5 -62.5t43.5 -66.5q29 -47 49.5 -101.5t36.5 -107.5q20 -68 31.5 -136.5t13.5 -137.5q4 -98 -10 -193.5t-53 -187.5 q-23 -49 -43.5 -98.5t-46.5 -96.5q-100 -184 -273 -293q-18 -10 -35.5 -22t-33.5 -23q-16 -10 -31.5 -20t-38.5 -10q-6 0 -12 -3.5t-12 -7.5q-59 -29 -118 -51t-124 -35q-106 -18 -207 -10q-29 4 -57.5 6t-57.5 10q-74 16 -135 53.5t-108 100.5q-72 102 -97.5 215t-9.5 236z " />
<glyph unicode="4" horiz-adv-x="1275" d="M0 1708q4 55 12 109.5t19 107.5q23 111 55.5 216.5t69.5 211.5q47 139 96 275.5t96 275.5q8 23 15.5 44.5t17.5 43.5q12 27 33.5 40t46.5 22q10 4 22.5 5t22.5 3q31 6 55.5 -6.5t39.5 -34t19.5 -47t-4.5 -47.5q-31 -74 -48 -151t-40 -153q-53 -178 -98 -356 q-18 -78 -34.5 -157.5t-35.5 -159.5q-10 -41 -19 -84t-19 -86q-4 -10 -5.5 -19.5t-3.5 -19.5q-4 -29 0 -37t29 -23q41 -23 83 -34t87 -15q47 -4 95 -5t95 -5q6 0 13.5 1t17.5 1q4 35 7 66.5t8 62.5q10 88 20 175t20 177q14 145 26.5 290t29.5 290q4 55 16 109.5t25 107.5 q4 16 13 33.5t20 34.5q8 16 27.5 27.5t43 13.5t46 -6.5t34.5 -26.5q49 -76 72 -172q18 -72 25.5 -146.5t11.5 -148.5q8 -154 -0.5 -306.5t-22.5 -306.5q-8 -78 -12 -155.5t-10 -155.5q-6 -98 -11.5 -193.5t-11.5 -193.5q-10 -141 -18.5 -280.5t-18.5 -280.5q-6 -82 -14 -162 t-17 -162q-4 -41 0 -82q4 -109 -65 -182q-49 -53 -119 -53q-23 0 -45 4t-45 8q-66 16 -92 92q-18 63 -25.5 127t-9.5 129q-6 154 1 304.5t24 302.5q10 115 21 226.5t22 225.5v37h-156q-53 2 -108.5 1t-108.5 1q-70 2 -132.5 26.5t-119.5 61.5q-90 61 -84 164z" />
<glyph unicode="5" horiz-adv-x="1624" d="M-1 641.5q-3 112.5 36 226.5q10 31 22.5 59.5t36.5 51.5q10 10 12 18q10 31 36 44.5t51 25.5q23 10 46 -1t27 -34q2 -10 3 -20.5t-1 -20.5q-16 -47 -10 -91t14 -91q10 -41 20.5 -83t20.5 -83q14 -55 40 -104.5t61 -94.5q10 -10 18 -19t19 -19q29 -23 59.5 -30t64.5 9 q39 16 76 34.5t70 45.5q37 29 73.5 57.5t67.5 63.5q29 29 53.5 59.5t49.5 63.5q23 35 42 71.5t37 73.5q6 10 9.5 22.5t7.5 24.5q16 47 31.5 93t25.5 93q12 59 20.5 118t12.5 118q6 66 8 128t0 128q-4 66 -9 133.5t-13 134.5q-8 53 -32 102.5t-48 96.5q-18 37 -64 37 q-47 4 -95 3t-95 -15q-53 -14 -105.5 -24.5t-105.5 -25.5q-23 -6 -45.5 -16t-46.5 -16q-14 -4 -29.5 -2t-32.5 4h-26q-8 10 -16.5 19t-18.5 20q-29 31 -50.5 66.5t-29.5 76.5q-61 276 -31 559q4 45 16.5 88t24.5 86q8 35 28.5 60.5t43.5 48.5q18 18 51 22q72 8 145.5 16.5 t145.5 8.5q111 4 222.5 1t221.5 -5q29 -2 56.5 -4t56.5 -7q33 -4 60.5 -17t43.5 -54q-10 -4 -17 -9.5t-17 -9.5q-74 -39 -154 -45t-162 -6q-80 0 -159.5 2t-159.5 6q-20 0 -40 3t-40 5q-27 4 -53.5 6.5t-57.5 6.5q6 -25 8 -41q8 -35 16.5 -68t12.5 -67q6 -98 11 -193.5 t10 -193.5q2 -43 3 -87t3 -92q16 4 29.5 8.5t23.5 8.5q59 27 120.5 42t127.5 25q18 2 36.5 2t39.5 5q16 0 30.5 2t30.5 2q41 2 78 -9.5t69 -31.5q102 -63 166 -154.5t103 -202.5q76 -213 84 -430q4 -61 7 -123.5t7 -124.5q4 -84 -7 -163.5t-26 -161.5q-16 -102 -49 -197.5 t-86 -185.5q-98 -170 -229 -299q-31 -33 -67 -60.5t-77 -48.5q-57 -29 -116.5 -50t-120.5 -38q-43 -10 -90 -8t-92 6q-70 6 -136.5 21.5t-126.5 50.5q-86 47 -157.5 109.5t-108.5 160.5q-6 16 -11 31.5t-9 32.5q-27 117 -30 229.5z" />
<glyph unicode="6" horiz-adv-x="1609" d="M2 1455q4 169 53 337q33 111 61.5 220.5t73.5 215.5q55 135 125 260t162 238q43 49 90 96t99 88q35 29 73.5 50.5t77.5 41.5q33 16 65.5 29.5t67.5 24.5q45 16 66.5 6t50.5 -51q-12 -45 -40 -80t-66 -62q-74 -53 -133.5 -118.5t-106.5 -143.5q-45 -74 -85 -148.5 t-73 -156.5q-39 -102 -67.5 -203.5t-44.5 -210.5q-20 -154 -29.5 -306t2.5 -308q0 -13 2 -23q41 31 80 60.5t78 58.5q23 16 51 33q111 61 226.5 80.5t240.5 -6.5q35 -8 67.5 -15.5t63.5 -23.5q76 -37 127 -94.5t92 -129.5q53 -96 70.5 -197.5t21.5 -207.5q2 -70 -1 -137.5 t-17 -134.5q-20 -104 -70.5 -190.5t-126.5 -158.5q-66 -63 -144.5 -102t-164.5 -61q-180 -49 -340 -9.5t-305 152.5q-61 49 -111.5 106.5t-89.5 124.5q-80 137 -111 293q-23 104 -38 209t-19 211q-8 174 -4 343zM492 840q10 -39 22 -76t29 -72q82 -195 276 -284 q49 -23 101.5 -30t105.5 9q96 27 168 83t119 146q23 45 37 92.5t8 98.5q-10 68 -27.5 133.5t-50.5 126.5q-39 68 -94.5 110.5t-141.5 36.5h-20q-86 -4 -166 -24.5t-151 -67.5q-68 -45 -120 -105.5t-93 -131.5q-10 -18 -2 -45z" />
<glyph unicode="7" horiz-adv-x="1806" d="M8 2806q-2 25 27 35q18 8 37.5 18t40.5 8q47 0 92 11.5t92 21.5q84 16 166 32.5t166 30.5q63 10 126.5 16.5t127.5 14.5q80 10 160.5 19.5t162.5 19.5q74 8 147.5 17.5t147.5 5.5q10 0 17.5 1t15.5 3q45 8 51 -27q4 -41 15.5 -78t7.5 -78q-8 -80 -27.5 -156.5 t-48.5 -150.5q-18 -51 -36.5 -100t-41.5 -98q-23 -53 -47.5 -106.5t-48.5 -106.5q-23 -45 -42.5 -89.5t-39.5 -89.5q-4 -16 -6 -22l246 -12q61 -4 117.5 -27t111.5 -55q-12 -12 -14 -19q-8 -35 -48 -30q-111 10 -218 0.5t-216 -17.5q-49 -2 -63 -47q-35 -84 -59.5 -168 t-36.5 -174q-10 -84 -26.5 -165t-35.5 -163q-23 -102 -49.5 -201.5t-50.5 -199.5q-12 -51 -23.5 -102.5t-25.5 -100.5q-29 -113 -82 -207q-23 -41 -47.5 -78.5t-53.5 -74.5q-43 -53 -72.5 -78t-50.5 -35q-23 -10 -38 -6q-53 16 -74 54t-37 77q-25 53 -28 108.5t-5 112.5 q-2 41 0 80l4 78q2 66 11.5 131.5t25.5 128.5q16 76 33.5 149.5t38.5 147.5q23 78 47 152.5t49 150.5q29 86 56.5 172t56.5 174q4 4 4 11.5t4 17.5q-16 -2 -30.5 -2t-28.5 -4q-53 -10 -107.5 -21.5t-108.5 -19.5q-41 -6 -80.5 -9.5t-80.5 -5.5q-57 0 -29 54q18 33 55 39 q27 4 52.5 13t50.5 19q90 29 180 48.5t186 29.5q123 276 275.5 532.5t326.5 514.5q-16 -2 -26 -2t-21 -2q-125 -16 -249.5 -32t-251.5 -32q-104 -12 -207 -23.5t-207 -29.5q-63 -10 -125 -21.5t-127 -11.5q-33 0 -63.5 -3t-61.5 7q-10 4 -20.5 7t-14.5 18z" />
<glyph unicode="8" horiz-adv-x="1587" d="M4 584q8 92 36 175t62 165q41 94 82 186t82 186q53 121 111.5 237t122.5 230q6 10 10 19.5t6 13.5q-20 23 -38.5 44.5t-39.5 41.5q-84 86 -144.5 186.5t-88.5 217.5q-31 129 -6.5 246.5t110.5 222.5q31 35 62.5 68.5t66.5 64.5q119 96 271 131q66 14 129 30.5t129 14.5 q41 -2 79.5 -6t79.5 -9q20 -4 40 -7t40 -7q31 -4 54.5 -19.5t44.5 -37.5q14 -18 10 -45t-9.5 -51.5t-9.5 -51.5q-4 -49 -24.5 -91t-42.5 -85q-35 -59 -67 -118.5t-64 -118.5q-29 -53 -58.5 -104.5t-58.5 -102.5l-61 -111q20 -20 28 -26q104 -82 199.5 -173.5t177.5 -195.5 q78 -98 124 -208t60 -232q37 -352 -94 -676q-37 -88 -93 -162t-128 -137q-82 -72 -172 -125t-188 -98q-86 -39 -176.5 -55.5t-184.5 -6.5q-147 16 -252.5 86t-171.5 203q-33 68 -43 140.5t-2 150.5zM160 553q-4 -37 8 -74t36.5 -67.5t57.5 -52t68 -27.5q80 -16 158.5 -12 t156.5 30q117 39 208 109.5t151 179.5q37 70 51 142.5t16 150.5q0 57 -4 113.5t-8 113.5q-4 47 -17.5 90t-35.5 84q-53 86 -123 154q-51 49 -100.5 98.5l-102.5 102.5q-10 -12 -17.5 -20.5t-11.5 -18.5q-57 -100 -106 -195q-35 -66 -71 -130t-66 -130 q-53 -111 -102.5 -222.5t-98.5 -221.5q-23 -47 -32 -96.5t-15 -100.5zM637 2480q8 -53 32.5 -98t53.5 -88q10 -14 20.5 -28t22.5 -32q23 37 40 70t36 66q41 76 83 151.5t83 151.5l98 172q10 16 8 35.5t-12 29.5q-12 10 -25.5 6t-25.5 -8q-4 -2 -8.5 -4t-8.5 -4 q-53 -29 -104 -64.5t-101 -70.5q-94 -63 -161 -156q-43 -55 -31 -129z" />
<glyph unicode="9" horiz-adv-x="1400" d="M6.5 2535q26.5 129 116.5 246q53 72 126 122t150 91q66 35 135.5 54.5t145.5 17.5q86 -2 169 -18.5t163 -51.5q37 -18 73 -30q43 -12 82 -32t80 -40q35 -20 51 -64q20 -57 23.5 -113.5t-0.5 -115.5q-4 -63 -7 -125.5t-7 -126.5q-6 -111 -13.5 -218.5t-11.5 -217.5 q-4 -80 -3 -160t1 -160q-2 -156 -1 -311.5t-3 -310.5q-2 -137 1 -273.5t13 -273.5q2 -37 5 -74t5 -74q2 -31 1 -62.5t-1 -63.5v-23q-2 -33 -13 -55.5t-27 -38.5q-18 -19 -41 -31q-66 -2 -127.5 7t-79.5 22q-29 18 -37 45q-45 115 -60 227q-18 166 -23 331t-1 331q2 96 3 190 t5 191q4 82 7 162.5t5 162.5q4 90 4 179t3 180v51q-113 -84 -234 -103q-115 -16 -224.5 -4.5t-211.5 68.5q-68 39 -120 95t-85 128q-63 141 -36.5 270zM248 2310q20 -35 43.5 -64.5t62.5 -45.5q31 -14 76 -25q94 -27 185.5 -19.5t179.5 54.5q29 16 55.5 32.5t54.5 32.5 q23 12 32 28.5t13 39.5q10 55 19.5 111.5t23.5 109.5q16 61 35 122t37 124q-14 6 -30.5 13t-33.5 13q-68 23 -135 35.5t-139 1.5q-59 -8 -116.5 -24.5t-114.5 -36.5q-158 -59 -240 -203q-92 -152 -8 -299z" />
<glyph unicode=":" horiz-adv-x="522" d="M0.5 398q-4.5 30 11.5 53q16 20 32.5 37.5t35.5 33.5q12 14 24.5 27.5t28.5 23.5q18 12 39 22.5t43 14.5q35 8 68.5 -4t62.5 -28q29 -18 42 -46t3 -57q-2 -43 -8 -70.5t-20.5 -46t-39 -31t-61.5 -22.5q-66 -18 -125 -14t-112 57q-20 20 -24.5 50zM0.5 1466.5 q-4.5 28.5 11.5 51.5q16 20 32.5 37.5t35.5 35.5q12 14 24.5 26.5t28.5 22.5q18 12 39 23.5t43 15.5q35 6 68.5 -5t62.5 -27q29 -18 42 -46t3 -59q-2 -41 -8 -68.5t-20.5 -47t-39 -32t-61.5 -22.5q-66 -18 -125 -14t-112 57q-20 23 -24.5 51.5z" />
<glyph unicode=";" horiz-adv-x="479" d="M16.5 1526q-4.5 28 12.5 51q16 18 32.5 35.5t32.5 36.5q14 12 25.5 25.5t27.5 23.5q20 12 40 22.5t42 14.5q35 8 67.5 -4.5t61.5 -28.5q31 -16 43.5 -44t1.5 -59q0 -41 -6 -68.5t-20.5 -46t-39 -30.5t-61.5 -22q-66 -18 -125 -14.5t-110 57.5q-20 23 -24.5 51zM35 483 q0 20 12 45t31.5 45.5t42 32.5t41.5 8q47 -8 98 -14t90 -47q12 -12 15 -18q39 -100 15 -192.5t-114 -147.5q-25 -16 -56.5 -21.5t-62.5 -9.5q-23 -4 -32 10t2 37q8 14 22 29q18 23 38 42t38 40q10 14 24.5 29.5t0.5 33.5q-8 10 -25.5 13t-34.5 8q-23 2 -43 6q-16 4 -34.5 6 t-30.5 6q-37 14 -37 59z" />
<glyph unicode="&#x3c;" horiz-adv-x="1673" d="M5 1325.5q11 24.5 46 46.5q23 16 39 43q23 35 41.5 72t40.5 72q98 152 203.5 293t224.5 276q59 66 116.5 133.5t117.5 132.5q70 76 141.5 149.5t142.5 145.5q25 25 52.5 46.5t64.5 31.5q57 -43 55 -115q0 -39 -7 -72.5t-36 -66.5q-49 -57 -94 -116.5t-92 -119.5 q-92 -119 -181 -235.5t-182 -233.5q-51 -66 -104 -128t-107 -126q-57 -70 -122.5 -131t-137.5 -114q-4 -4 -6 -7.5t-6 -7.5q31 -27 62.5 -51t62.5 -49q90 -70 177 -138.5t175 -135.5q63 -49 126 -97.5t128 -95.5q92 -72 184.5 -140.5t186.5 -137.5q47 -35 93 -67t93 -63 q45 -29 69.5 -72.5t45.5 -90.5q4 -6 2 -15.5t-4 -19.5q-6 -31 -14 -64q-10 -8 -24.5 -17t-31.5 -17q-27 -14 -51 -17q-72 -10 -135 23q-53 25 -105.5 50t-99.5 58q-129 84 -254 169t-250 173q-160 115 -297 250t-254 293q-29 35 -47 75t-24 87q-4 18 -10.5 37.5t-12.5 38.5 q-12 41 -1 65.5z" />
<glyph unicode="=" horiz-adv-x="1572" d="M-0.5 791.5q2.5 23.5 29.5 33.5q35 12 70.5 20.5t72.5 12.5q203 16 401.5 28.5t395.5 26.5q66 0 125 1t118 -1q51 -4 101.5 -10t99.5 -12q23 -4 38 -14.5t19 -32.5q2 -23 -3 -44.5t-27 -33.5q-20 -10 -40 -22.5t-42 -18.5q-119 -37 -239 -44t-242 -11q-129 -4 -255 -6 t-255 -5q-61 -2 -123 -1t-121 30q-29 14 -54.5 29.5t-48.5 34.5q-23 16 -20.5 39.5zM-0.5 1290q2.5 25 29.5 35q35 12 70.5 20.5t72.5 12.5q203 16 401.5 28.5t395.5 26.5q66 0 125 1t118 -3q51 -2 101.5 -8t99.5 -12q23 -4 38 -14.5t19 -35.5q2 -23 -3 -43t-27 -32 q-20 -12 -40 -23.5t-42 -17.5q-119 -37 -239 -45.5t-242 -12.5q-129 -4 -255 -6t-255 -4h-123t-121 31q-59 29 -103 61q-23 16 -20.5 41z" />
<glyph unicode="&#x3e;" horiz-adv-x="1329" d="M2 2677q-4 16 2 34.5t12 34.5q8 16 20.5 16.5t29.5 -5.5q72 -29 137 -69t125 -87q78 -61 153.5 -123.5t145.5 -132.5q66 -63 122 -134t115 -140q31 -37 59.5 -75t61.5 -73q39 -43 70.5 -90t54.5 -100q14 -29 47 -43q59 -25 78.5 -70t-2.5 -107q-35 -104 -80 -200 q-78 -180 -168 -348t-194 -332q-53 -86 -107.5 -170t-110.5 -170q-29 -47 -67.5 -86t-89.5 -66q-31 -16 -58.5 -37.5t-56.5 -44.5q-16 -10 -31.5 -20t-38.5 -6q-8 2 -17 -4t-19 -11q-29 -10 -52.5 -9t-46.5 30q25 143 66 277.5t127 254.5q78 113 154.5 224.5t150.5 228.5 q59 90 114.5 181t110.5 184q23 37 45.5 73.5t46.5 75.5q-10 16 -22 32.5t-25 33.5q-41 57 -82 113.5t-84 111.5q-43 57 -87 113.5t-91 109.5q-63 74 -129.5 143.5t-134.5 141.5q-35 37 -73 70.5t-74 68.5q-43 41 -69 92t-38 109z" />
<glyph unicode="?" horiz-adv-x="1136" d="M0 2116q-2 6 0 13t4 13q59 188 184 334q47 55 100.5 105.5t108.5 101.5q57 53 126 59t141 -8q82 -14 150.5 -54t117.5 -98.5t79.5 -133t37.5 -158.5q2 -16 2 -31v-25q8 -172 -74 -303q-41 -66 -86 -131t-96 -127q-80 -98 -160 -195.5t-152 -201.5q-23 -33 -43 -64.5 t-43 -66.5q-49 -76 -99 -153t-101 -152q-20 -31 -35 -29t-31 37q-41 92 -49 188.5t24 194.5q35 111 95.5 204t134.5 179q41 47 85 91t87 91q27 29 51.5 58.5t46.5 60.5q23 35 45.5 70.5t34.5 74.5q27 76 12.5 148.5t-67.5 126.5q-63 66 -118.5 70.5t-131.5 -68.5 q-41 -41 -74 -91.5t-47 -111.5q-6 -25 -22 -43q-14 -18 -29.5 -35.5t-32.5 -36.5q-41 -49 -92 -18q-33 20 -52.5 50t-31.5 65zM61 137q0 12 1 24.5t4 24.5q2 4 2 9.5t2 7.5q29 14 58 28.5t62 24.5q25 6 41.5 -10.5t30.5 -34.5q16 -23 13 -47.5t-11 -48.5q-6 -20 -13 -41 t-18 -41q-16 -41 -57 -27l-12 4l-12 4q-55 16 -74 41t-17 82z" />
<glyph unicode="@" horiz-adv-x="3293" d="M0 1270q-2 213 61 428q57 193 167 352.5t261 294.5q131 117 277.5 202t314.5 138q244 74 484.5 71t482.5 -75q162 -47 303 -129t270 -197q182 -162 306.5 -358.5t195.5 -425.5q41 -133 51.5 -268.5t-0.5 -276.5q-12 -139 -59 -262t-115 -240q-8 -12 -15 -24.5t-13 -26.5 q-27 -61 -69 -111.5t-87 -99.5q-49 -55 -111.5 -76.5t-125 -20.5t-119 22.5t-95.5 52.5q-78 59 -115.5 142t-64.5 175q-4 16 -8 32.5t-10 45.5q-33 -49 -59.5 -89t-49.5 -79q-35 -57 -75.5 -109.5t-92.5 -95.5q-8 -6 -20 -18q-41 -49 -90 -85t-103.5 -60.5t-112 -43 t-116.5 -32.5q-135 -35 -257 -8.5t-235 98.5q-104 66 -161.5 160t-65.5 219q-18 289 91.5 516t332.5 405q109 86 233.5 129t266.5 35q74 -4 147.5 -15.5t143.5 -48.5q29 -16 59.5 -26t58.5 -23q25 -6 39 -18q23 -20 43.5 -42t42.5 -42q76 -66 115 -144.5t35 -179.5 q-2 -92 0 -182t8 -182q4 -49 17.5 -97.5t31.5 -95.5q10 -29 31.5 -51t44.5 -41q41 -35 82 -31t76 45q102 123 174.5 257.5t89.5 295.5q12 98 -4 205q-45 309 -242 565q-8 12 -16.5 23.5t-18.5 24.5q-174 229 -403.5 348t-513.5 133q-217 10 -410.5 -55.5t-357.5 -204.5 q-188 -158 -308 -358.5t-149 -450.5q-8 -72 0 -147.5t14 -151.5q4 -51 12.5 -102.5t18.5 -102.5q4 -29 14.5 -54.5t20.5 -54.5q29 -68 56.5 -134t56.5 -136q4 -10 3 -23.5t3 -37.5q-23 14 -37.5 21t-26.5 18l-160 116q-119 90 -210 195.5t-146 249.5q-86 215 -88 428z M1241 477q4 -25 7 -58.5t5 -68.5q2 -51 54 -55q66 -6 129 -1t120 40q47 29 93.5 57.5t87.5 69.5q98 98 183 199.5t148 224.5q20 35 36 70.5t38 68.5q47 70 -8 129q-25 31 -53.5 57.5t-59.5 53.5q-106 88 -226 106.5t-249 -27.5q-18 -6 -35.5 -20t-29.5 -31 q-45 -53 -71 -115.5t-48 -125.5q-51 -135 -82 -275.5t-39 -298.5z" />
<glyph unicode="A" horiz-adv-x="1910" d="M1 236q-1 7 -1 14q0 9 2 18q23 88 44.5 175t49.5 173q72 223 159 439.5t165 439.5q43 127 93 247t101 243q51 121 100.5 239.5t98.5 237.5l53 143q8 16 12.5 30.5t20.5 24.5q29 16 52.5 35t47.5 37q20 14 50 25q27 6 52 6q9 0 19 -1q34 -3 41 -40q31 -90 70 -217 q35 -109 80 -268.5t104 -374.5q29 -145 59.5 -287.5t71.5 -284.5q25 -86 43.5 -174t38.5 -176q59 -221 109 -401q20 -78 39.5 -153t35 -136.5t23.5 -104.5t8 -53q0 -23 -23.5 -40t-43.5 -27q-16 -9 -32 -17q-13 -7 -26 -6h-6q-31 3 -63 3l-31 -1h-7q-43 0 -83 23 q-45 23 -78 58.5t-55 82.5q-37 72 -61.5 145.5t-41.5 151.5q-18 92 -43.5 180t-50.5 178q-27 96 -46 193.5t-40 195.5q0 4 -1 7.5t-1 7.5q-4 23 -8 35t-11.5 18t-19.5 7t-35 1q-193 0 -385 19q-10 2 -22.5 1t-30.5 -1q-27 -2 -39 -1t-19.5 -3.5t-13.5 -18.5t-18 -47 q-68 -166 -136.5 -331t-135.5 -331q-25 -59 -44.5 -119.5t-41.5 -121.5q-10 -33 -28 -59.5t-46 -49.5q-12 -10 -25.5 -17t-30.5 3q-16 9 -19 25zM592 1448q47 4 92 8t90 4q39 1 79 1h39q60 -1 120 -1q37 0 43 8q4 4 4 18q0 9 -2 23q-18 147 -37 294t-37 294 q-6 47 -12.5 97.5t-18.5 105.5q-49 -106 -96 -205.5t-92 -198.5q-94 -199 -164 -397q-4 -11 -8 -23q-2 -6 -2 -13t2 -15z" />
<glyph unicode="B" horiz-adv-x="1400" d="M5 2337q-1 22 -1 45q0 60 6 123q4 29 3 56.5t-1 55.5q2 20 6.5 39t8.5 37q4 25 19 36t38 15q20 4 33.5 -5t23.5 -25q16 -23 26.5 -44.5t27.5 -41.5q8 -8 8 -18.5v-20.5q4 -70 8 -138.5t8 -138.5q4 -72 9 -142.5t16 -141.5q16 29 30.5 57.5t30.5 56.5q47 92 107.5 173 t128.5 157q51 59 107.5 111.5t121.5 93.5q94 61 207 76q11 1 21 1q60 0 104 -49q41 -49 53 -114q6 -31 12.5 -61.5t10.5 -61.5q2 -21 2 -43q0 -37 -6 -73q-10 -58 -31 -114q-41 -117 -114 -208t-169 -166q-25 -20 -49.5 -41t-52.5 -37q-8 -4 -15.5 -10.5t-9.5 -18.5 q6 -10 15.5 -11t19.5 -5q80 -33 152.5 -75t134.5 -101q53 -53 94 -116t70 -134q31 -72 46 -144.5t27 -150.5q12 -88 20 -175q7 -70 7 -143v-34q0 -74 -18.5 -141.5t-51.5 -131.5q-86 -168 -239 -278q-147 -104 -320 -113q-17 -1 -35 -1q-135 0 -258 42q-96 33 -172 109 q-10 10 -18 20t-25 16q-4 -16 -5 -29.5t-5 -27.5q-2 -10 -6 -17t-14 -7h-34t-28 8q-16 37 -23.5 76.5t-8.5 80.5v27q0 27 1 55q2 41 2 82q-2 176 -2 350.5t-2 348.5q0 97 -4 195q-3 65 -3 131q0 33 1 65q0 72 -3 143.5t-5 143.5q-6 180 -25 354q-10 86 -13 168zM236 676 q-1 -16 -1 -31q0 -50 15 -93q20 -56 76 -99q94 -73 196 -97q37 -9 75 -9q67 0 140 26q117 41 186.5 123t90.5 206q6 47 6 93.5t2 93.5v20q0 153 -29 310q-12 70 -39.5 132t-81.5 111q-115 102 -256 135q-36 7 -72 9q-4 0 -7 1q-33 0 -64 -12q-37 -14 -75 -21t-76 -11 q-29 -4 -35 -9.5t-13 -33.5q-10 -47 -10 -93.5v-93.5v-89t-2 -89q-2 -68 -7 -134.5t-5 -131.5q0 -53 -4 -106.5t-10 -106.5zM348 1802q27 29 53.5 47.5t51.5 36.5q41 29 81.5 58.5t77.5 64.5q39 37 74 75t70 79q160 180 205 428q-115 -49 -197 -133q-123 -135 -222.5 -284 t-176.5 -314q-4 -10 -9.5 -23.5t-7.5 -34.5z" />
<glyph unicode="C" horiz-adv-x="1486" d="M-1 1060v27q0 109 7 218q8 135 22.5 266t41.5 262q20 113 43.5 222.5t72.5 213.5q53 111 125 201t172 160q86 59 184.5 84.5t215.5 29.5q152 -12 278.5 -82.5t210.5 -220.5q52 -92 52 -202q0 -12 -1 -23q0 -12 -2 -18q-4 -16 -12 -31t-27 -19q-6 -1 -12 -1q-27 0 -47 30 q-23 39 -48.5 76t-51.5 76q-37 53 -88.5 85.5t-112.5 49.5q-18 5 -34 5t-32 -5q-32 -10 -65 -23q-86 -35 -140.5 -100.5t-97.5 -140.5q-43 -76 -68.5 -156t-41.5 -166t-26.5 -171t-20.5 -171q-6 -53 -9.5 -104.5t-7.5 -104.5q-2 -53 -4 -105.5t-2 -105.5v-43q0 -87 6 -172 q8 -106 27 -213q8 -49 16 -99t25 -97q18 -57 46 -107.5t77 -87.5q16 -10 31.5 -18.5t31.5 -12.5q29 -8 54.5 -2t50.5 33q66 70 106.5 150.5t63.5 173.5q25 98 36 204q4 27 13.5 48.5t25.5 41.5q20 23 48 18t40 -32q0 -4 1.5 -5t1.5 -5q2 -49 14 -97q7 -29 7 -60 q0 -20 -3 -40q-10 -72 -27.5 -142.5t-46.5 -135.5q-27 -63 -63.5 -117.5t-79.5 -105.5q-23 -27 -46.5 -50.5t-45.5 -48.5q-41 -43 -92.5 -60.5t-106.5 -27.5q-39 -6 -77 -6q-61 0 -115 16q-90 26 -175 78q-115 70 -172 176.5t-86 231.5q-16 78 -30.5 155.5t-18.5 157.5 q-10 123 -11 245z" />
<glyph unicode="D" horiz-adv-x="1505" d="M0 1800q0 94 2 188.5t12 188.5q4 41 5 84t6 86q4 53 28.5 92t65.5 68q34 25 68 25q17 0 33 -6q50 -18 77 -72q16 -37 29.5 -78t19.5 -82q4 -21 14 -64q25 37 46.5 69t44.5 62q66 96 149.5 168t181.5 131q92 59 209 88q46 11 88 11q70 0 124 -31q87 -49 147 -148 q37 -66 51 -135t18 -141q1 -17 1 -33q0 -85 -18 -167q-20 -98 -48 -195q-51 -168 -115.5 -330t-136.5 -322q-57 -129 -114.5 -254.5t-121.5 -248.5q-55 -109 -111.5 -213.5t-115.5 -210.5q-18 -35 -34.5 -71t-33.5 -73q-23 -51 -59.5 -88t-83.5 -65q-37 -23 -75 -25t-77 -8 q-14 0 -20 6l-44.5 44.5t-33.5 53.5q-35 92 -49 187.5t-25 193.5q-10 106 -23 211t-26 211q-14 109 -24.5 216.5t-12.5 217.5q-4 117 -11 229.5t-7 229.5zM372 1669q6 -68 8.5 -135.5t6.5 -134.5q8 -147 16.5 -292.5t20.5 -293.5q6 -59 10 -120.5t8 -123.5q0 -6 1.5 -14 t9.5 -14q20 23 30 45q10 23 19.5 42t19.5 40q68 117 129.5 236.5t120.5 242.5q35 70 66.5 138.5t66.5 139.5q41 82 80 163t74 167q37 86 69.5 170t55.5 176q12 47 24.5 93.5t16.5 95.5q2 18 2 36q0 27 -4 53q-6 44 -29 85q-16 35 -36 46q-15 8 -41 8q-9 0 -19 -1 q-10 -2 -18.5 -3t-18.5 -5q-74 -20 -135.5 -60.5t-118.5 -87.5q-119 -100 -211 -219t-170 -252q-29 -51 -44 -105q-11 -39 -11 -81q-1 -17 1 -35z" />
<glyph unicode="E" horiz-adv-x="1654" d="M0 1726q1 44 1 87v43q-1 64 -1 110q4 135 4 252t-4 233v7q0 135 80 247q20 29 51 38.5t64 13.5q56 3 111 3h56q82 -2 166 -7q66 -4 130.5 -8.5t129.5 -8.5q141 -10 281.5 -23.5t280.5 -46.5q100 -25 182 -79q8 -6 15 -11.5t12 -13.5q8 -14 8 -25q1 -8 -3 -14 q-10 -16 -34 -18h-93t-94 2l-188 8t-190 14q-104 8 -207 12.5t-207 12.5q-25 2 -49.5 2h-48.5q-23 -2 -28 -9t-1 -30q4 -18 8 -37.5t8 -38.5q8 -29 16.5 -36t39.5 -7q37 -1 73.5 -1t72.5 1q24 1 49 1q48 0 97 -3q154 -4 308 -31q61 -12 127 -41q47 -20 76.5 -57t58.5 -78 q6 -10 10 -21t-6 -22q-8 -10 -18.5 -8t-20.5 4q-105 20 -207 22l-114 2q-46 0 -93 -1q-184 0 -370 12h-41q-25 0 -27 -25q0 -6 -1 -11t-1 -9q-10 -222 -13 -444q-1 -60 -1 -121q0 -161 7 -324q6 -180 6.5 -355t0.5 -353q0 -33 -2 -65t-5 -64l-2 -22q0 -52 32 -88 q38 -44 104 -50q51 -4 100 -5t101 -3q125 -2 248.5 -6.5t248.5 -8.5q39 0 77 -9t75 -19q57 -16 76 -70q8 -29 1 -41t-36 -16q-53 -6 -108.5 -11.5t-110.5 -7.5q-117 -4 -230.5 -7t-230.5 -7q-39 0 -76 -2t-74 -2q-45 -2 -86 -13.5t-86 -15.5q-16 -1 -31 -1q-56 -1 -110 11 q-68 14 -129 54q-41 27 -67.5 68.5t-43.5 88.5q-16 45 -16 90q0 43 -7 86t-15 86q-10 61 -14.5 123t-6.5 123q-4 133 -13 264t-16 265q-6 118 -12 234q-4 87 -4 174v58z" />
<glyph unicode="F" horiz-adv-x="1841" d="M1 1190q-1 39 -1 79q0 53 2 105q2 55 4 109.5t6 107.5l4 40t2 40q0 104 4.5 209t6.5 211q2 86 7 169t13 167q12 109 60 213q20 40 68 66q41 22 81 23q6 0 12 -1q12 -2 24.5 -3t24.5 1q57 4 113 5h23q45 0 92 -3q195 -11 388 -11h32h84q167 0 335 -3q59 0 120 -6.5 t120 -10.5q37 -4 71 -20.5t72 -20.5q16 -4 17 -24q-2 -6 -2 -12.5t-4 -10.5q-23 -27 -43.5 -52.5t-46 -46t-56 -34.5t-69.5 -16q-86 -6 -172 -6h-53q-33 1 -65 1q-78 0 -153 -4q-70 -1 -133 1q-21 0 -42 1q-42 0 -85 -2q-76 0 -151.5 5.5t-151.5 13.5q-29 2 -54.5 2t-51.5 2 q-25 0 -23 -27q14 -78 17.5 -157.5t3.5 -159.5q0 -23 6 -28t26 -5q10 0 20.5 1t20.5 3q121 23 241 24h27q107 0 216 -7q68 -4 134 -9.5t134 -9.5q66 -4 132.5 -13t131.5 -20l62 -6q31 -4 42 -22.5t-4 -46.5q-10 -20 -22 -31q-63 -61 -139 -86t-162 -31q-193 -16 -385 -18 q-96 -1 -191.5 -1t-191.5 1h-64q-31 0 -38 -7.5t-7 -37.5q0 -10 -1 -18.5t1 -18.5v-60q0 -105 -5 -208.5t-5 -208.5v-60q0 -104 6 -208q4 -62 4 -124q0 -42 -2 -83q-4 -88 -7 -174.5t-7 -172.5q-4 -66 -8 -129t-13 -129q-4 -39 -15 -72.5t-46 -56.5q-14 -12 -20 -24 q-16 -25 -52 -29q-27 -2 -52 -3h-10q-21 0 -44 3q-41 4 -74 34t-43 71q-31 119 -37 237q-4 89 -4 180v60q2 104 4 210q1 35 1 70q0 70 -3 140q-4 92 -7 184z" />
<glyph unicode="G" d="M0 1346q4 111 16.5 217t32.5 213q18 96 43 190t60 186q47 113 104 217.5t150 188.5q100 90 216.5 142.5t254.5 56.5h19q87 0 160 -33q81 -37 152 -98q27 -25 50.5 -52.5t46.5 -56.5q33 -39 49 -94q2 -16 12 -35q14 -29 15 -57.5t-7 -59.5q-10 -33 -34.5 -43t-51.5 8 q-31 23 -61.5 47.5t-59.5 47.5t-55.5 44t-58.5 35q-55 25 -111 25h-16q-64 -4 -125 -35q-154 -76 -226 -235q-45 -98 -77.5 -200.5t-53.5 -211.5q-43 -225 -43 -449q0 -51 2 -102q6 -125 22.5 -248t66.5 -241q12 -29 28.5 -57.5t32.5 -57.5q25 -41 62.5 -68.5t78.5 -52.5 q22 -11 45 -11q21 0 43 9q29 12 53.5 29.5t47.5 36.5q45 35 84 72.5t73 82.5q76 100 103 217q16 70 32.5 138.5t20.5 140.5q2 33 -3 40t-38 5q-24 -1 -48 -1q-42 0 -85 4q-66 7 -131 17q-59 10 -109 50q-23 16 -22.5 40.5t2.5 47.5q0 20 12 30.5t31 14.5q43 14 86 17t88 9 q63 8 127 12q43 4 88 4q19 0 39 -1q49 -2 97 -4t95 -19q35 -12 33 -45q-4 -29 -2 -56.5t6 -56.5q2 -24 2 -47q0 -28 -3 -56q-5 -50 -9 -103q-10 -104 -14 -206q-1 -29 -1 -58q0 -74 7 -148q5 -65 5 -130v-22q-1 -75 -5 -151q-2 -41 -4 -52.5t-5 -17.5t-7.5 -17t-8.5 -52 q-2 -29 -7 -57.5t-13 -57.5q-4 -23 -13 -43q-6 -16 -16 -34t-24 -28q-29 -14 -48 -15h-3q-18 0 -40 15q-16 25 -22 58q-8 35 -16.5 68.5t-18.5 66.5q-14 47 -17 92t-5 92q-2 37 -2 45.5v9.5t-1.5 9t-1.5 45q0 10 1.5 21.5t-7.5 21.5q-10 4 -14 -3l-8 -14q-39 -49 -83 -93 t-95 -79q-49 -35 -101.5 -61.5t-108 -41.5t-114.5 -15t-121 18q-135 41 -235.5 125t-159.5 217q-41 96 -66.5 195.5t-40.5 203.5q-19 141 -19 283q0 31 1 62z" />
<glyph unicode="H" horiz-adv-x="1572" d="M0 1612q-1 27 -1 54.5t1 53.5q2 166 12 336q4 92 11.5 181.5t11.5 179.5q4 53 6 105t12 106q4 29 15.5 52t27.5 46q4 6 10.5 9t12.5 5q25 0 48 -1t46 -17q4 -4 11 -5t14 -5q16 -8 30.5 -25.5t24.5 -39t16 -45.5t4 -42q-1 -16 -1 -32q0 -18 1 -34q2 -32 2 -67v-146.5 t2 -146.5q0 -104 1 -208.5t4 -209.5q0 -4 1 -8t1 -8q94 6 187 12t185 10q63 3 125 3q31 0 63 -1q94 -2 191 -2q2 29 4 54.5t2 50.5q4 111 7.5 218t9.5 216q4 84 11 167t26 165q8 35 21 68.5t30 66.5q10 23 40 30q9 2 18 2q20 0 36 -12q33 -23 54.5 -50t29.5 -68 q18 -102 25.5 -205t13.5 -207q4 -66 7 -130.5t5 -129.5q4 -66 4 -133.5t2 -132.5q4 -80 6.5 -159t4.5 -159q4 -94 7 -188t7 -189q4 -72 7 -144.5t7 -143.5q3 -92 3 -183v-46q-1 -114 -11 -228q-4 -47 -17 -89t-42 -77t-69 -45t-77 -10q-43 0 -88 12q-4 18 -8 33.5t-8 32.5 q-23 70 -36 139t-13 143q0 35 -4.5 72t-6.5 74q-4 59 -5 117.5t-3 117.5q-4 106 -7 212t-3 212q0 88 2 174l4 172q0 12 -1 25.5t-1 29.5h-745q2 -37 3 -72.5t5 -72.5q4 -72 7 -145.5t7 -145.5t10 -142.5t11 -141.5q12 -143 17 -285q1 -42 1 -84q0 -101 -8 -203 q-4 -66 -16.5 -130t-41.5 -126q-11 -23 -31 -38q-16 -12 -34 -12q-5 0 -10 1q-10 2 -19.5 10t-17.5 17q-53 59 -73.5 128.5t-31.5 143.5q-16 154 -31.5 303.5t-31.5 302.5q-31 297 -37 600q0 53 -2 107z" />
<glyph unicode="I" horiz-adv-x="468" d="M0 567q2 190 15.5 376.5t23.5 377.5q6 121 11 239.5t11 239.5q4 102 12.5 202.5t14.5 205.5q4 78 6 153.5t6 151.5q2 39 6.5 76t10.5 73q10 47 53 72q24 14 50 14q19 0 38 -8q61 -27 87 -54.5t26 -94.5q1 -22 1 -43t-1 -42t-1 -41.5t1 -41.5q0 -27 2 -52.5t2 -52.5 q-2 -53 -4 -103t-4 -101q-2 -59 -2 -120v-120q0 -64 1 -126v-42q0 -42 -1 -86v-120.5t-11 -121.5q-8 -62 -8 -122v-24q1 -36 1 -73t-1 -74q-2 -82 -2 -163.5t-10 -163.5q-10 -90 -12.5 -177t-8.5 -175q-2 -28 -2 -56q0 -20 1 -42q3 -50 7 -99q4 -37 11.5 -73t15.5 -77 q-23 -18 -53.5 -28.5t-59.5 -16.5q-35 -8 -71 -10q-14 0 -29.5 9.5t-28.5 19.5q-33 29 -47 68.5t-24 80.5q-23 96 -29 192q-4 72 -4 144v49z" />
<glyph unicode="J" horiz-adv-x="1351" d="M0 557q0 84 29 168q10 31 23.5 60.5t27.5 58.5q23 57 57.5 89t65.5 48q37 18 73 23q32 -46 32 -91q0 -31 -15 -61q-20 -41 -35.5 -84t-15.5 -92q2 -35 8 -66.5t22 -60.5q59 -111 142 -160q68 -41 160 -41q18 0 38 2q68 4 113 42t74 95q29 53 38 110.5t19 115.5 q16 94 18.5 188t8.5 191q4 72 7 143.5t5 142.5q4 63 4 125t2 125q4 63 8 127t9 129l8 126l8 126q6 109 11 216.5t11 215.5q2 16 5.5 30.5t3.5 29.5q-2 35 17 56t42 40q15 12 34 12q8 0 16 -2q30 -6 50 -29q78 -92 101 -200q23 -111 29 -221q3 -61 3 -122q0 -51 -2 -102 q-1 -27 -1 -56v-28v-28q0 -29 -1 -56q-4 -82 -8 -163.5t-8 -165.5q-4 -86 -4 -169t-4 -169l-8 -212t-15 -210q-31 -299 -209 -547q-31 -41 -61.5 -82t-71.5 -74q-76 -59 -160 -86q-52 -16 -110 -16q-35 0 -72 6q-180 29 -299 127t-188 258q-35 84 -35 168z" />
<glyph unicode="K" horiz-adv-x="2152" d="M0 2444.5q0 78.5 8 156.5q4 39 15.5 72.5t27.5 66.5q15 31 39 31q15 0 33 -12q23 -12 38 -32t27 -42q27 -53 44.5 -108.5t31.5 -114.5q14 -53 25.5 -107.5t19.5 -109.5q12 -102 21.5 -202.5t17.5 -203.5q4 -53 5 -105.5t5 -105.5q4 2 8.5 2t8.5 2q86 59 177 112.5 t183 104.5q96 53 188.5 105.5t188.5 103.5q51 29 104.5 54.5t106.5 52.5q16 8 35.5 13t38.5 9q10 4 21.5 3t21.5 -3q37 -10 44 -27.5t-9 -52.5q-18 -37 -46 -61.5t-63 -44.5q-205 -125 -408.5 -248t-408.5 -248q-10 -6 -20.5 -13t-26.5 -17q10 -8 18 -14.5t17 -10.5 q154 -88 306 -176t306 -174q104 -57 208.5 -110.5t209.5 -110.5q49 -29 95 -58.5t93 -60.5q31 -20 59.5 -39t57.5 -41q31 -25 58.5 -49.5t56.5 -50.5q23 -20 45 -42t45 -44q15 -15 15 -31q0 -9 -5 -19q-6 -16 -16.5 -24t-28.5 -6q-51 4 -102.5 12t-98.5 33 q-68 35 -136.5 71.5t-133.5 75.5q-100 59 -198.5 120.5t-198.5 121.5q-104 61 -209 119.5t-209 117.5q-86 47 -170 93.5t-170 93.5q-10 4 -35 16q0 -16 -1 -26.5t1 -20.5q8 -86 15 -173t18 -173q10 -86 19 -172t20 -174q4 -41 6 -81t6 -81q4 -61 7 -122.5t3 -121.5 q0 -27 -6 -53.5t-16 -50.5q-8 -25 -29 -28t-43 -5h-8q-34 0 -54 31q-43 74 -65.5 152.5t-36.5 164.5q-18 113 -37.5 224.5t-38.5 224.5q-14 84 -24.5 166t-20.5 166q-12 94 -22.5 188t-18.5 188q-8 72 -12 146t-8 145q-10 123 -16.5 243t-14.5 243q-4 78 -4 156.5z" />
<glyph unicode="L" horiz-adv-x="1294" d="M0 2257q-1 25 -1 51q0 50 3 100q4 74 12 148q4 41 17.5 81t25.5 81q8 20 26.5 24t35.5 4h6q59 0 103 -38q46 -40 65 -99q14 -49 25.5 -98t15.5 -101q4 -33 7 -63.5t5 -60.5q4 -55 6 -111.5t4 -114.5q2 -55 2 -110.5v-110.5v-24.5t4 -22.5q10 -41 10.5 -81t2.5 -81 q4 -35 7 -71.5t7 -71.5q2 -20 2 -38.5t2 -39.5q6 -66 13.5 -131.5t23.5 -130.5q10 -35 11 -70t5 -69q6 -39 12.5 -78t12.5 -78q10 -59 20.5 -119.5t12.5 -122.5q4 -86 15 -168t20 -166q2 -14 5 -27.5t7 -29.5h10q31 1 57 11q30 12 58 26q45 23 85 47.5t77 56.5 q125 102 266 172q25 10 49.5 19.5t52.5 9.5q32 1 48 -17q9 -11 10 -26q0 -9 -4 -20q-10 -27 -22.5 -48.5t-37.5 -37.5q-86 -59 -168 -119t-168 -119q-70 -47 -142.5 -88t-156.5 -59q-35 -10 -70.5 -14.5t-72.5 -8.5q-13 -1 -25 -1q-28 0 -55 6q-39 9 -78 26q-8 4 -15 10 t-11 14q-14 33 -28.5 64t-21.5 63q-33 147 -47 294t-24 294q-10 141 -22.5 279.5t-33.5 279.5q-14 98 -23 197.5t-15 200.5q-10 131 -14.5 262t-8.5 264z" />
<glyph unicode="M" horiz-adv-x="2287" d="M0 561q0 86 2 169t4 169q0 45 1 89t3 89q4 63 6 127t4 129q1 39 1 79v40v29q0 45 2 90q2 57 5 113.5t5 113.5q4 106 6 212t8 212q4 57 11.5 112.5t11.5 112.5q2 19 2 40q0 34 -6 71q-4 12 4 26.5t18 24.5q30 39 66 44q7 1 13 1q30 0 62 -18q8 -4 15.5 -8.5t15.5 -6.5 q23 -8 29 -30q4 -10 11 -17.5t15 -15.5q35 -39 68 -78t68 -74q33 -33 66.5 -61.5t68.5 -58.5q43 -41 87 -81t85 -81t80 -81t77 -81q31 -35 61 -73t58 -72q10 -12 22.5 -23.5t24.5 -24.5q16 -18 35 -37.5t37 -39.5q8 -8 21 -15q27 39 51 78t53 76q35 43 69.5 86t69.5 86 q31 37 59.5 74t57.5 75q29 35 52.5 72t51.5 74q14 18 31 35.5t33 36.5q2 2 2 4t2 6q4 4 5 10t5 10q35 31 57.5 71t55.5 73q18 20 36.5 38.5t35.5 36.5q10 10 18 21.5t18 21.5q6 8 14.5 15.5t16.5 13.5q18 14 36.5 28.5t41.5 24.5q17 7 32 7q36 0 64 -39q35 -47 46.5 -99.5 t19.5 -105.5q6 -43 9 -87q2 -26 2 -52q0 -17 -1 -35q-4 -86 -9 -172t-11 -172q-4 -59 -9.5 -115.5t-9.5 -116.5q-4 -66 -6 -133.5t-6 -132.5q0 -29 -3 -55.5t-5 -55.5q0 -23 2 -45t2 -45q0 -41 -1 -80t-1 -80q2 -35 4 -68.5t2 -68.5v-270q0 -47 1 -92t1 -92v-170 q0 -25 1 -50.5t1 -50.5q-2 -53 -13.5 -101t-46.5 -89q-29 -31 -63.5 -41t-71.5 -14q-29 -4 -53.5 2t-50.5 14q-12 2 -31 6q-27 27 -35 63.5t-20 71.5q-8 23 -14.5 46.5t-10.5 47.5q-4 29 -2 55.5t2 55.5v137q2 29 2 59.5v59.5q0 39 -2 78t-2 80q4 76 6 151.5t7 151.5 q4 61 7 122.5t5 125.5q3 47 3 96v24v41q0 41 1 82q2 111 12 222q4 45 10.5 89t12.5 93l-18.5 -18.5t-14.5 -18.5q-45 -51 -89 -102.5t-89 -104.5q-29 -33 -53 -65q-37 -47 -74 -96.5t-76 -96.5q-16 -20 -37.5 -36.5t-40.5 -33.5q-12 -10 -24.5 -22t-22.5 -23 q-16 -16 -32.5 -24t-41.5 0q-10 4 -19 1t-20 1q-20 10 -38.5 21.5t-36.5 25.5q-14 10 -24.5 25.5t-27.5 25.5q-23 12 -33 30.5t-26 35.5q-16 16 -29.5 32.5t-29.5 32.5q-51 57 -101.5 114.5t-101.5 115.5q-41 45 -83 90t-83 90q-41 43 -84 84l-86 82q-4 4 -9 8t-13 10 q0 -16 1 -28.5t3 -24.5q10 -92 13 -184q1 -40 1 -80q0 -53 -2 -107q-1 -22 -1 -43.5t1 -42.5t1 -43t-1 -45q-4 -66 -7 -131.5t-7 -130.5q-4 -55 -8.5 -110.5t-8.5 -110.5l-31 -320q-6 -70 -12 -137.5t-14 -134.5q-4 -47 -9 -91t-16 -89q-18 -105 -49 -201 q-23 -66 -47.5 -93.5t-46.5 -33.5q-10 -3 -20 -3q-15 0 -29 7q-41 35 -56.5 81t-15.5 99q-2 94 -3 188.5t-1 188.5z" />
<glyph unicode="N" horiz-adv-x="1955" d="M-1 2174q1 62 3 128q0 35 3 68.5t5 68.5q2 33 22.5 58.5t49.5 39t61.5 12.5t59.5 -20q23 -14 41 -28.5t28 -36.5q37 -78 95.5 -137.5t115.5 -120.5q82 -86 157 -174t138 -187q74 -113 145.5 -223.5t147.5 -220.5q72 -106 146.5 -211t152.5 -209q43 -59 92 -112.5 t97 -108.5q2 -2 5 -3t7 -3q16 4 17 14t1 20q-4 66 -6 130.5t-6 130.5q-6 154 -12 305t-11 305q-4 131 -5 261t-5 261q-2 92 -4 180t-2 181q0 53 11.5 103t37.5 103q31 -14 45.5 -36.5t23.5 -49.5q6 -18 7.5 -38.5t5.5 -38.5q35 -143 46 -289t24 -293q14 -166 27.5 -333 t29.5 -335q6 -61 17.5 -122.5t15.5 -125.5q9 -129 21 -257q5 -52 5 -104q0 -77 -10 -155q-4 -29 -12 -56.5t-18 -55.5q-12 -33 -26.5 -66t-29.5 -69q-59 2 -118.5 12t-100.5 67q-18 25 -37.5 49.5t-38.5 49.5q-59 70 -117.5 139.5t-115.5 140.5q-37 47 -70 95.5t-67 97.5 q-59 86 -117.5 172t-116.5 174q-72 106 -140.5 213.5t-137.5 216.5q-25 37 -55.5 71.5t-69.5 73.5q12 -92 22 -177t21 -171q4 -47 7 -93t7 -93q6 -84 12 -166t11 -166q4 -86 5 -173t3 -173q0 -119 -6 -235q-2 -39 -9.5 -76t-25.5 -72q-25 -45 -66 -78q-23 -20 -42 -43.5 t-38 -48.5q-57 -72 -133 -135q-29 12 -40 33.5t-21 46.5t-19.5 50.5t-21.5 49.5q-31 59 -50.5 124t-21.5 134q-4 123 -5 246t-5 246q-4 113 -6 224.5t-6 221.5q-3 67 -3 133v32.5v33.5q0 66 -3 131q-4 86 -10.5 172t-10.5 172q-3 53 -3 103v25z" />
<glyph unicode="O" horiz-adv-x="1765" d="M0 1114q-1 19 -1 39q0 77 13 156q12 70 19.5 138.5t21.5 133.5q14 66 32.5 127t39.5 125q16 49 33.5 97t38.5 95q20 43 40.5 85t47.5 83q35 55 69.5 108.5t75.5 102.5q125 154 301 252q106 61 232 94q73 19 143 19q174 0 324 -121q63 -51 107 -115.5t73 -140.5 q41 -98 62.5 -198.5t21.5 -206.5q-2 -29 -1 -55.5t1 -55.5q1 -36 1 -71q0 -182 -34 -357q-41 -209 -102 -418q-39 -125 -81 -246.5t-108 -234.5q-74 -129 -164 -244t-213 -203q-86 -60 -179 -84q-70 -18 -147 -18q-25 0 -51 2q-109 6 -192.5 57.5t-161.5 122.5 q-98 92 -147 206t-74 243q-8 41 -13 82t-10 90q-4 41 -7 64.5t-5 52.5q-2 98 -6 194zM436 1118q0 -13 -1 -27q0 -108 11 -217q8 -88 25.5 -173t60.5 -164q41 -76 98.5 -129.5t139.5 -81.5q55 -18 105 -18q111 0 200 89q41 43 77 91.5t67 101.5q80 137 134 282.5t89 301.5 q36 172 60 342q19 135 19 275q0 36 -1 71q-4 92 -15.5 182t-46.5 176q-29 72 -66 140.5t-98 121.5q-31 -10 -60.5 -17t-57.5 -20q-139 -53 -253 -139t-202 -209q-119 -166 -179.5 -351t-88.5 -384q-15 -123 -17 -244z" />
<glyph unicode="P" horiz-adv-x="1271" d="M-1 2305q1 38 3 75q2 16 7 34.5t11 34.5q8 25 41 25q90 -2 127 -86q14 -39 25 -84q10 -51 20.5 -101.5t20.5 -101.5q6 -35 11 -69.5t11 -69.5l9 -27q4 10 8 17.5t8 15.5q35 92 79 175t91 167q106 193 274 338q72 63 158 96q34 14 67 14q30 0 60 -12q62 -26 96 -86 q33 -59 46.5 -120.5t19.5 -126.5q3 -32 3 -63q0 -43 -6 -84q-11 -71 -36 -142q-4 -10 -10 -20.5t-13 -20.5q-53 -94 -123.5 -171t-154.5 -143q-76 -59 -158 -106t-174 -76q-45 -14 -90 -27.5t-92 -27.5q-2 -2 -14 -10q2 -23 4 -45.5t4 -44.5q4 -49 8 -99.5t12 -99.5 q10 -88 25.5 -174t25.5 -174q12 -86 20.5 -173t18.5 -175q4 -53 7.5 -106.5t3.5 -106.5q0 -35 -2 -71t-11 -71q-8 -31 -21 -60.5t-26 -60.5q-4 -10 -9 -19t-9 -19q-9 -20 -24 -20q-6 0 -13 3q-23 10 -42.5 22.5t-33.5 37.5q-35 61 -52 127.5t-24 138.5q-4 45 -14 88t-16 88 q-10 66 -17.5 132.5t-17.5 133.5l-12 86q-8 66 -16.5 132.5t-14.5 131.5q-8 68 -13.5 135.5t-9.5 135.5q-10 111 -16 220t-14 220q-6 98 -12.5 197.5t-10.5 197.5q-3 30 -3 60v15zM305 1725.5q0 -23.5 6 -52.5q39 16 73 31.5t67 34.5q59 33 116.5 66.5t114.5 68.5 q29 16 52.5 36.5t47.5 43.5q37 33 66 69.5t57 77.5q23 35 40.5 70t29.5 74q20 59 26.5 121.5t8.5 125.5q0 16 -2 32t-7 32q-6 35 -43 45q-9 2 -17 2q-9 0 -19 -3q-16 -5 -33 -13q-53 -35 -98 -74q-55 -47 -102.5 -103.5t-88.5 -115.5q-18 -27 -36.5 -53.5t-37.5 -55.5 q-63 -98 -113.5 -202.5t-97.5 -210.5q-10 -23 -10 -46.5z" />
<glyph unicode="Q" horiz-adv-x="1712" d="M-8 1186q-5 67 -5 134q0 172 33 347q20 111 48 215.5t69 208.5q47 123 116 231.5t167 200.5q72 66 150.5 118t170.5 87q53 27 125 29h22q60 0 116 -9q75 -9 155 -32q135 -53 219 -151.5t131 -231.5q23 -66 42.5 -134.5t29.5 -140.5q6 -47 18.5 -92t16.5 -92 q16 -131 16 -265q0 -124 -14 -251q-8 -74 -24.5 -143.5t-32.5 -139.5q-20 -92 -55.5 -176t-82.5 -162q-16 -31 -33.5 -60.5t-37.5 -58.5q-14 -22 -14 -42q0 -13 5 -25q23 -59 44.5 -120.5t44.5 -123.5q6 -20 11 -40.5t9 -41.5l25 -166q2 -12 2 -24t2 -25l-13 -6 q-47 47 -76.5 102.5t-60.5 108.5q-31 55 -55.5 114.5t-52.5 123.5q-14 -14 -25.5 -26.5t-23.5 -23.5q-78 -70 -164 -116.5t-189 -63.5q-33 -5 -66 -5q-16 0 -33 1q-50 4 -97 21q-29 10 -56.5 17t-54.5 19q-117 49 -203 131t-147 193q-152 276 -172 586zM360 1403 q-1 -29 -1 -59q0 -130 22 -254q12 -82 43 -158t70 -148q49 -92 119.5 -154.5t170.5 -92.5q42 -14 82 -14q57 0 109 30q47 29 85 69t68 89q-4 6 -6 13t-6 13q-51 129 -99 256t-89 258q-29 86 -56.5 170t-62.5 166q-20 47 -33.5 94.5t-27.5 94.5q-6 29 0 59q4 25 23.5 34 t41.5 -1q8 -4 15.5 -10.5t15.5 -12.5q51 -51 76 -123q20 -53 43.5 -105t42.5 -106q39 -111 73.5 -218t69.5 -216q16 -51 36 -100.5t38 -102.5q8 6 12 11q49 86 80 178t49 188q14 70 20.5 139.5t12.5 139.5q5 52 5 103q0 54 -6 107q-10 105 -26 210q-16 92 -48 177t-73 169 q-23 47 -54.5 89t-68.5 81q-23 23 -51 37t-63 14q-23 1 -45 1h-22h-22q-21 0 -44 1q-41 0 -78 -31q-98 -76 -169 -171t-120 -206q-74 -170 -108.5 -346t-43.5 -362z" />
<glyph unicode="R" horiz-adv-x="1327" d="M2 2333q0 6 2 13t0 13q-4 16 -4 31q0 28 14 51q22 35 52 68q6 8 18 8q25 2 48.5 3t45.5 -3q33 -4 57.5 -26.5t30.5 -57.5q6 -45 11.5 -89t11.5 -89q0 -6 1 -13.5t3 -17.5q47 59 91 114.5t91 108.5q66 74 140.5 137.5t162.5 110.5q119 64 246 64h8q47 -2 81 -21.5 t52 -66.5q10 -25 14.5 -48.5t0.5 -50.5q-6 -96 -45 -176t-103 -149q-106 -117 -231 -209t-264 -166q-16 -10 -33 -19.5t-37 -19.5q6 -8 11 -15.5t14 -13.5q137 -135 260 -295q57 -76 106 -155.5t92 -163.5q53 -100 86 -205.5t60 -214.5q20 -82 37.5 -163t33.5 -163 q15 -72 19 -144q1 -20 1 -40q0 -53 -9 -106q-4 -23 -7.5 -44.5t-7.5 -43.5q-10 -23 -22 -37t-29.5 -22.5t-44.5 -2.5q-61 61 -82 137q-16 68 -31.5 136.5t-27.5 136.5q-29 156 -66 308t-94 300q-57 152 -136 290t-192 257q-27 29 -52.5 58.5t-55.5 64.5q0 -12 -1 -19.5 t-1 -11.5q4 -47 8 -95t10 -96q10 -92 23.5 -180t25.5 -180q16 -106 32.5 -211.5t29.5 -212.5q10 -76 15 -150.5t5 -150.5v-21q0 -42 -6 -82l-16 -100q-4 -29 -9.5 -58.5t-15.5 -57.5q-10 -26 -43 -48q-28 -18 -52 -19q-5 0 -9 1q-12 4 -22.5 7t-20.5 7q-11 5 -21 9 q-23 18 -34 41.5t-19 48.5q-4 16 -8 32.5t-8 32.5q-20 55 -27.5 111.5t-15.5 116.5q-10 98 -21.5 195t-22.5 196q-10 92 -19 180t-19 180q-20 160 -28.5 317.5t-16.5 317.5q-14 27 -8.5 52.5t3.5 53.5q-2 53 -5 105.5t-5 105.5q-4 55 -4 111.5t-2 112.5zM305 1989q2 -4 6 -9 q20 10 40 22.5t40 22.5q100 59 199.5 119t191.5 131q43 35 86 69t78 77q32 41 52 86q18 41 18 88v10q-2 23 -10 30q-4 3 -10 3q-8 0 -19 -4q-70 -23 -123 -51q-92 -47 -167 -115t-138 -148q-59 -76 -115.5 -151.5t-111.5 -153.5q-6 -6 -9.5 -13t-7.5 -13z" />
<glyph unicode="S" horiz-adv-x="1468" d="M0 2210q4 70 22.5 134t55.5 124q119 190 340 266q82 28 167 28q28 0 56 -3q33 -4 65.5 -8.5t65.5 -14.5q78 -20 144.5 -60t123.5 -98q23 -23 40.5 -46t37.5 -46q14 -16 29.5 -33.5t28.5 -33.5q23 -35 45 -68t43 -67q14 -25 10 -41.5t-23 -32.5q-24 -21 -48 -21 q-18 0 -36 13q-29 18 -53 37.5t-51 41.5q-41 35 -89 58.5t-102 32.5q-40 7 -78 7q-44 -1 -84 -9q-78 -16 -145 -68q-74 -58 -74 -127q0 -22 7 -45q10 -35 34.5 -55.5t53.5 -36.5q47 -29 95 -53.5t95 -53.5q143 -84 252 -209q41 -47 78 -95t70 -101q37 -63 71.5 -129 t55.5 -137q18 -63 37.5 -126t27.5 -128q10 -79 10 -157q0 -121 -24 -239q-20 -106 -64.5 -197t-109.5 -177q-10 -18 -33 -37q-82 -66 -171 -113t-194 -72q-69 -15 -134 -15q-67 0 -130 16q-123 32 -233 122q-29 25 -58.5 52.5t-54.5 56.5q-41 49 -64.5 105.5t-44.5 115.5 q-39 100 -40 207q0 45 5 90t9 90q0 6 8 18q12 23 31.5 32t38.5 14q23 4 43 0q14 -8 18 -19.5t4 -28.5v-102t2 -104q2 -88 33 -164t84 -146q35 -45 96 -63q74 -25 143 -25q38 0 76 8q104 22 201 84q23 16 42.5 34t37.5 36q47 49 65.5 110.5t22.5 127.5q2 32 2 64 q1 82 -11 160q-16 109 -56 216q-27 66 -57 130t-77 120q-25 29 -51 55.5t-55 48.5q-66 57 -135.5 106.5t-147.5 88.5q-55 27 -108.5 58.5t-98.5 74.5q-47 47 -88 98t-65 115q-35 87 -35 188v21z" />
<glyph unicode="T" horiz-adv-x="2254" d="M2 2630q6 18 35 28q35 14 69.5 23.5t69.5 13.5q104 8 210 13.5t212 9.5t213 8t213 8q35 1 70 1h36h21q42 0 84 3q104 6 206 6q61 0 123 -2q162 -6 328 -16q41 -3 86 -3q23 0 47 1h12q65 0 120 -19q16 -4 23 -13t28 -11q-2 -10 -2 -15.5t-2 -9.5l-80 -135q-25 -45 -72 -51 q-72 -8 -141.5 -17.5t-138.5 -13.5q-111 -4 -217.5 -5t-217.5 -3q-6 0 -12 -1t-14 -3q0 -10 -1 -18.5t1 -16.5q23 -123 29 -247t10 -251q4 -111 9 -218t9 -218q6 -158 13.5 -313.5t11.5 -315.5q4 -109 7 -215t3 -217q0 -45 -3 -89t-5 -91q-2 -16 -3 -34.5t-1 -37.5 q0 -27 -4.5 -50t-18.5 -46q-18 -31 -42 -43q-16 -8 -37 -8q-11 0 -23 2q-66 10 -108 49t-71 94q-29 53 -42 108.5t-23 113.5q-16 103 -22 203q-4 74 -4 148q0 27 1 54q0 35 -2 66.5t-4 66.5l-12 283q-10 190 -18.5 377.5t-14.5 378.5q-1 33 -1 66q0 202 32 400q2 6 1 13.5 t-1 17.5q-68 4 -132.5 5t-129.5 5q-111 4 -222.5 6.5t-224.5 6.5q-10 0 -18 2t-19 -2q-20 -4 -40 -4q-25 0 -48 7q-41 13 -82 38q-43 27 -57 80q-5 17 -5 30q0 9 3 17z" />
<glyph unicode="U" horiz-adv-x="1394" d="M0 2264.5v236.5v59.5t4 58.5q6 57 45 101q33 37 97 36q12 0 24 -1q55 -6 89 -33t50 -80q4 -10 7 -18.5t8 -18.5q33 -61 50 -125.5t34 -130.5q27 -113 31.5 -226.5t11.5 -228.5q4 -68 8 -134t8 -134q6 -90 13 -177t14 -175q4 -88 7 -176t15 -176q14 -98 34.5 -193.5 t43.5 -191.5q10 -41 28.5 -79t41.5 -73q33 -55 85 -79.5t115 -26.5q23 0 36 9t26 25q39 53 64.5 111.5t41.5 122.5q29 113 41 225.5t14 226.5q2 125 5.5 248t7.5 246q4 98 4 194.5t4 194.5l8 164l8 164q4 68 6.5 135.5t4.5 134.5q2 53 10 105.5t29 101.5q16 41 44 57 q22 13 62 14q10 0 20 -1q-2 -23 -4 -41.5t0 -38.5q2 -59 5 -121t4 -121q1 -47 1 -93v-45.5v-45.5q0 -45 1 -90q2 -88 4 -174t2 -175q-2 -111 -5 -221t-5 -221q-2 -59 -2.5 -118.5t-4.5 -118.5q-6 -94 -13 -187.5t-19 -185.5q-16 -111 -43 -216.5t-76 -207.5 q-41 -86 -104.5 -155.5t-153.5 -112.5q-97 -46 -197 -64q-28 -5 -57 -5q-73 0 -150 32q-53 23 -99 54.5t-81 76.5q-63 84 -108 176t-68 197q-12 59 -30.5 118.5t-28.5 120.5q-14 84 -21.5 167t-13.5 169q-18 242 -25 487q-4 109 -5 215.5t-1 215.5q-2 119 -2 236.5z" />
<glyph unicode="V" horiz-adv-x="2048" d="M0 2380v14q0 96 51 176q41 68 101 75q7 1 13 1q53 0 111 -47q27 -20 45.5 -49t34.5 -58q55 -111 109.5 -219t107.5 -221q47 -100 89.5 -200.5t85.5 -202.5q57 -135 113.5 -266.5t111.5 -266.5q47 -115 93 -228.5t95 -225.5q31 -72 69 -139.5t73 -139.5q2 -4 6 -7.5 t12 -13.5q12 41 23.5 76t21.5 70q27 106 49 215q14 70 27.5 138.5t23.5 137.5q23 137 41.5 273.5t40.5 273.5q12 72 26.5 140.5t31.5 140.5q29 119 54.5 236.5t53.5 236.5q25 106 62 207q16 45 36.5 90t45.5 86q14 23 35.5 40t43.5 36q9 8 18 8q5 0 9 -2q14 -6 27 -10 q14 -7 15 -19v-5q0 -10 -3 -21q-14 -47 -27.5 -94.5t-23.5 -94.5q-23 -100 -45.5 -200.5t-44.5 -202.5q-31 -154 -63 -304.5t-60 -304.5q-16 -94 -28.5 -189t-29.5 -190q-8 -47 -17 -95t-19 -95q-23 -100 -44.5 -200.5t-46.5 -198.5q-14 -59 -31.5 -116.5t-37.5 -115.5 q-16 -47 -49 -81.5t-68 -69.5q-33 -33 -72 -53.5t-77 -43.5q-10 -8 -22.5 -15t-22.5 -15q-41 -23 -80 -28q-6 -1 -13 -1q-33 0 -67 21q-45 25 -82 56.5t-68 72.5q-76 104 -133 217.5t-104 234.5q-68 170 -135.5 337t-133.5 339q-70 178 -138 354t-136 357q-35 94 -57.5 190 t-26.5 199z" />
<glyph unicode="W" horiz-adv-x="2881" d="M12 2294q-13 51 -13 100q0 63 21 125q8 23 40 31t61 -2q137 -55 203 -189q29 -55 51 -113.5t45 -117.5q49 -141 96 -281.5t94 -281.5q55 -166 107.5 -329t105.5 -329q4 -20 21 -57q10 18 19 31.5t14 27.5q41 100 80.5 199.5t80.5 200.5q16 39 35 75.5t35 77.5 q23 55 45.5 109.5t42.5 111.5q14 41 37.5 76t50.5 68q16 23 44 34t56 -8q29 -20 52 -41q20 -16 38.5 -36.5t22.5 -36.5q29 -98 56.5 -193.5t50.5 -193.5q23 -86 52.5 -167t57.5 -163q41 -129 81 -256t81 -256q2 -4 4 -10t8 -19q8 29 13.5 51.5t13.5 45.5q37 123 73.5 242.5 t75.5 242.5q25 78 51.5 154.5t49.5 154.5q41 129 78.5 256t76.5 256q20 66 41 131.5t43 130.5q35 106 69 213t69 215q12 39 27.5 76t43.5 70q25 29 55 36q8 2 15 2q21 0 43 -14q37 -23 62.5 -54.5t29.5 -80.5q4 -29 4 -55.5t-18 -52.5q-4 -4 -4 -17q-14 -96 -40 -186 t-48 -182q-14 -57 -28.5 -113.5t-31.5 -112.5q-25 -76 -50.5 -149.5t-49.5 -149.5q-16 -45 -28.5 -90t-29.5 -92q-35 -102 -69.5 -202.5t-69.5 -202.5q-10 -27 -15 -53.5t-13 -53.5q-39 -139 -77 -277.5t-79 -277.5q-16 -53 -30.5 -106.5t-26.5 -108.5q-6 -23 -19.5 -45.5 t-26.5 -44.5q0 -2 -2 -2q-27 -8 -52 -17.5t-52 -11.5h-6q-14 0 -28 8q-16 10 -32 27q-68 78 -115.5 165t-78.5 185q-41 123 -78 244t-78 244q-31 98 -63.5 196.5t-63.5 196.5q-20 63 -36.5 126.5t-32.5 129.5q-4 12 -8.5 24.5t-8.5 24.5q-2 0 -3 -1t-5 -1l-104 -297 q-27 -70 -51.5 -139.5t-51.5 -139.5q-33 -84 -59.5 -167.5t-38.5 -174.5q-8 -55 -31.5 -104t-50.5 -98q-10 -16 -28.5 -29.5t-39.5 -24.5q-73 -33 -148 -33q-54 0 -110 17q-31 10 -51 35q-29 31 -49 64.5t-37 70.5q-57 121 -91 247t-65 255l-165 663q-35 143 -70 285.5 t-72 288.5z" />
<glyph unicode="X" horiz-adv-x="1861" d="M12 2490q-12 46 -12 93t12 94q10 41 48 61q20 11 44 11q22 0 48 -9q33 -10 56 -30.5t44 -49.5q35 -47 69.5 -96t69.5 -98q80 -121 158 -239t156 -240q59 -92 113 -187.5t112 -191.5q4 -10 10 -18.5t12 -18.5q8 10 13.5 18t9.5 17q94 154 187 306t190 306q55 90 110.5 178 t112.5 178q20 35 42.5 67t45.5 66q14 18 37 39q12 10 24 10h4q14 -2 29 -12q27 -14 21 -51q-6 -25 -11.5 -49.5t-11.5 -48.5q-14 -63 -55 -127q-35 -53 -65.5 -110.5t-65.5 -110.5q-76 -119 -153 -237t-152 -236q-53 -82 -102.5 -163t-102.5 -161q-13 -20 -13 -40 q0 -18 11 -34q88 -164 185 -318.5t192 -312.5q45 -74 90 -147.5t88 -146.5q27 -45 50.5 -91.5t47.5 -93.5q16 -29 32.5 -56.5t33.5 -53.5q10 -16 10 -29q0 -3 -1 -6q-3 -15 -16 -31q-20 -27 -44.5 -36t-61.5 1q-109 27 -201 76t-178 117q-51 41 -95 88t-79 102 q-72 111 -141.5 219.5t-141.5 219.5q-10 16 -18 32.5t-18 32.5h-13q-18 -33 -38.5 -64.5t-39.5 -64.5q-66 -117 -129 -234.5t-129 -234.5q-23 -41 -49 -79t-55 -77q-18 -25 -40 -47t-44 -45q-23 -20 -45.5 -39.5t-44.5 -40.5q-8 -8 -17.5 -13t-19.5 -11q-18 20 -16 37.5 t8 33.5q29 88 61.5 172t77.5 164q45 86 86 170t88 168q37 66 78 129.5t82 128.5q18 31 36.5 63t39.5 62q10 14 9 25.5t-7 23.5q-16 31 -32.5 62t-33.5 61q-109 201 -216 398.5t-212 400.5q-49 98 -92 196.5t-72 202.5z" />
<glyph unicode="Y" horiz-adv-x="1648" d="M-1 597v8q0 38 9 75q10 51 36 96t79 70q23 10 43 -4q41 -31 43 -80q0 -66 21.5 -123t50.5 -111q33 -61 86 -99t115 -53q37 -8 75 -8q26 0 51 4q66 9 121 44q131 82 191 223q16 33 24 68.5t17 70.5q18 78 33.5 156t31.5 156q18 102 34.5 202.5t35.5 204.5l24 141 q2 10 3 18.5t3 16.5h-10l-24 -55q-31 -80 -62 -159t-61 -156q-41 -111 -125 -203q-35 -39 -80 -57.5t-94 -26.5q-10 -4 -22.5 -4t-22.5 -2q-19 -2 -37 -2q-55 0 -100 22q-58 31 -107 84q-43 47 -69.5 101.5t-45.5 115.5q-16 49 -22 99.5t-13 103.5q-8 64 -8 127q0 37 3 73 q7 99 14 199q6 74 16 147.5t25 145.5q8 41 22 80t33 78q8 12 10 18q4 16 12.5 28.5t26.5 12.5q23 2 41 -2t35 -20q25 -27 39 -55q11 -21 11 -48q0 -8 -1 -16q0 -16 2 -25q16 -88 18 -176t5 -176q2 -137 10 -271t37 -270q10 -43 24.5 -83.5t38.5 -75.5q10 -12 21.5 -23.5 t23.5 -25.5q27 23 49.5 44t36.5 50q27 53 51.5 106.5t44.5 108.5q35 90 65 178t62 178q82 215 191 426q14 29 22.5 59.5t14.5 61.5q20 86 51 166t70 158q8 16 19 23t28 11q25 6 48 10q8 2 17 2q16 0 33 -5q29 -10 45 -29t27 -43q20 -45 22 -90q1 -15 1 -30q0 -31 -3 -62 q-12 -137 -24.5 -272.5t-22.5 -272.5q-8 -113 -21.5 -225.5t-29.5 -223.5q-6 -45 -13.5 -88t-15.5 -88q-4 -33 -8 -65.5t-8 -65.5q-14 -88 -27.5 -175t-30.5 -175q-10 -55 -22 -110.5t-25 -112.5q-29 -123 -86 -225.5t-151 -186.5q-127 -111 -283 -168q-51 -18 -102 -30.5 t-107 -14.5q-16 -1 -32 -1q-65 0 -126 13q-75 17 -145 64q-10 6 -22.5 11t-22.5 11q-41 25 -75.5 55.5t-61.5 71.5q-47 66 -80 136.5t-39 150.5q-4 43 -5 85z" />
<glyph unicode="Z" horiz-adv-x="2281" d="M5 423q13 134 67 263q39 98 94 186.5t119 174.5q78 104 158.5 205.5t160.5 205.5q14 18 31 39q-23 0 -40 -1t-36 -3q-41 -4 -80 -7t-80 -7q-78 -6 -153.5 -11.5t-153.5 -11.5q-12 0 -25.5 1t-19.5 18q2 20 13.5 31.5t27.5 19.5q115 61 232.5 105t250.5 52q63 4 125 13.5 t125 19.5q23 4 41 19q123 113 242 225.5t242 224.5q47 45 97 87t99 85l13.5 13.5l17.5 17.5q-10 4 -17.5 6t-13.5 2h-491q-133 0 -265 -1h-52q-105 0 -212 3q-57 4 -112.5 15.5t-108.5 27.5q-53 12 -65 43q-4 11 -4 24q0 25 14 58q16 45 50 66.5t73 31.5q45 12 89 19.5 t91 11.5q78 10 154.5 17.5t154.5 11.5q160 8 318 12q104 2 206 4q51 1 102 1t103 -1q66 0 132.5 -5t131.5 -9l148 -21q29 6 38 0t19 -34q8 -23 7 -41.5t-5 -40.5q-12 -86 -65 -162q-86 -119 -181.5 -227.5t-193.5 -217.5q-47 -53 -94 -107l-94 -108q-2 -2 -3 -10 q94 -12 186.5 -23.5t186.5 -23.5q51 -8 97.5 -25.5t91.5 -44.5q25 -16 33 -38.5t18 -45.5q4 -4 -2 -13t-13 -13q-55 -25 -110 -40q-39 -11 -83 -11q-18 0 -36 2q-129 10 -254 16t-254 14q-6 0 -11 -1t-11 1q-20 6 -36 6q-18 0 -32 -7q-27 -13 -53 -46q-51 -66 -104.5 -127 t-106.5 -125q-41 -47 -81 -94t-79 -94q-53 -68 -105.5 -134.5t-101.5 -137.5q-47 -68 -92 -137.5t-92 -141.5q-16 -25 -31.5 -50.5t-32.5 -51.5q-16 -23 -16 -49q12 8 25.5 15t27.5 15q219 123 447.5 219.5t476.5 149.5q100 23 201.5 37t206.5 18q16 1 33 1q57 0 113 -11 q72 -14 144 -31q53 -14 101.5 -37.5t89.5 -60.5q8 -6 14 -15.5t6 -17.5q0 -31 -2 -62.5t-12 -66.5q-84 19 -167 19q-20 0 -40 -2q-54 -3 -108 -2q-49 0 -99 2l-135 6q-21 1 -42 1q-76 1 -150 -11q-94 -14 -187 -37q-205 -49 -395 -133.5t-375 -186.5q-70 -37 -140.5 -69.5 t-148.5 -51.5q-25 -6 -49 -6q-58 0 -110 35q-10 10 -17.5 21.5t-3.5 27.5t3 31.5t-3 32.5q-9 76 -9 150q0 61 6 121z" />
<glyph unicode="[" horiz-adv-x="690" d="M0 2265q4 88 12 175t15 177q2 27 5 52.5t23 48.5q23 25 46.5 40t56.5 15q86 4 165.5 -9.5t153.5 -56.5q45 -25 37 -63q-4 -20 -21.5 -32.5t-41.5 -12.5q-25 2 -49.5 4t-49.5 4q-16 2 -34.5 2t-38.5 2q-4 -31 -8.5 -57.5t-4.5 -54.5q4 -168 10.5 -336t10.5 -338 q4 -129 8 -255t6 -255q4 -225 6 -447.5t4 -447.5q0 -12 1 -25.5t1 -25.5q2 -74 64 -113q23 -14 46 -28.5t48 -26.5q51 -27 70.5 -73t36.5 -93q4 -14 -6.5 -23.5t-26.5 -7.5q-74 6 -147.5 6t-145.5 29q-25 10 -43.5 23.5t-30.5 35.5q-100 170 -119 367q-10 98 -14 194.5 t-10 194.5q-4 82 -7 163t-5 163q-4 176 -8.5 350t-8.5 352q-2 96 -5 190.5t-1 192.5z" />
<glyph unicode="\" horiz-adv-x="1644" d="M0 2601q-4 45 18.5 86t53.5 55q18 8 37.5 10.5t35.5 -12.5q63 -51 115.5 -110.5t93.5 -130.5q35 -59 69 -117t69 -115q63 -104 126.5 -206.5t124.5 -207.5q59 -98 117 -196t117 -197q39 -66 78 -129t75 -129q33 -55 63 -112.5t58 -114.5q55 -106 104.5 -216t88.5 -222 q29 -78 52.5 -156t47.5 -156q12 -45 25.5 -89t27.5 -89q10 -27 -14 -41q-12 -6 -21.5 -2t-19.5 14q-20 23 -39.5 43.5t-48.5 36.5q-27 12 -46 36t-40 46q-23 23 -45.5 47.5t-44.5 48.5q-6 8 -12 16.5t-15 16.5q-51 47 -93 102.5t-77 116.5l-172 289l-94 160t-94 158 t-97.5 155.5t-93.5 159.5q-92 170 -180 340t-174 342q-35 70 -69.5 138.5t-55.5 146.5q-14 49 -27.5 96t-23.5 88z" />
<glyph unicode="]" horiz-adv-x="839" d="M0 2685q4 8 6 11t4 7q35 43 76 58.5t100 -4.5q39 -14 83 -14.5t87 -4.5q10 0 19.5 2t19.5 4q41 10 86 -10t64 -59q25 -55 18 -115q-4 -66 -2 -134.5t6 -133.5q6 -104 13.5 -207t15.5 -207q12 -141 24.5 -280.5t22.5 -280.5q10 -156 17.5 -310.5t15.5 -308.5 q2 -41 4 -78.5t6 -76.5q8 -63 -2 -124t-18 -122q-4 -29 -8.5 -58.5t-4.5 -60.5q-2 -35 -10 -64.5t-29 -58.5q-20 -31 -51 -40t-65 -11q-39 -4 -73 -2t-71 9t-78 20.5t-96 36.5q0 12 -1 24t1 23q8 49 47 67.5t84 -6.5q29 -16 71 -25.5t87 -7.5q-4 12 -7 24.5t-7 22.5 q-51 111 -76 226.5t-35 236.5q-14 131 -23.5 262.5t-19.5 264.5q-10 121 -22.5 240.5t-18.5 240.5q-4 111 -4 221.5t2 220.5q0 45 3 89t7 89q6 78 14.5 155t16.5 161q-23 0 -43 -1t-43 1q-20 2 -39.5 4t-40.5 4q-59 0 -98 37q-10 10 -18.5 21.5t-16.5 21.5z" />
<glyph unicode="^" horiz-adv-x="772" d="M2 2206q-4 16 1 30.5t15 28.5q57 90 126 168t143 154q10 10 20 18t23 16q29 20 63.5 9t55.5 -41q45 -74 89 -146.5t91 -144.5q14 -23 25.5 -46.5t17.5 -51.5q4 -27 -1.5 -49.5t-13.5 -45.5q-25 -2 -40 8.5t-27 26.5q-47 53 -87 108.5t-79 112.5q-18 27 -36.5 52.5 t-35.5 52.5q-10 10 -16 18q-12 -12 -24.5 -23.5t-22.5 -23.5q-41 -45 -81 -90t-81 -92q-12 -14 -23.5 -29.5t-25.5 -27.5q-29 -31 -64 -11q-12 4 -12 19z" />
<glyph unicode="_" horiz-adv-x="1552" d="M16 137q2 25 29 35q35 12 71 20.5t72 12.5q203 16 401.5 28.5t395.5 26.5q66 0 125 1t119 -3q51 -2 101 -8l100 -12q23 -4 38 -15.5t19 -34.5q2 -23 -3 -43t-28 -32q-20 -12 -39.5 -23.5t-42.5 -17.5q-119 -37 -238.5 -45.5t-242.5 -12.5q-129 -4 -255 -6t-255 -4h-122.5 t-121.5 31q-59 29 -102 61q-23 16 -21 41z" />
<glyph unicode="a" horiz-adv-x="1740" d="M3 744q9 98 30 196q16 72 35.5 140.5t54.5 133.5q80 154 209 277q78 74 162 135.5t182 108.5t197.5 77.5t203.5 47.5q6 0 10.5 2t8.5 2q16 51 30.5 97t30.5 93q5 23 25 32q14 6 32 6q8 0 17 -1q51 -4 76.5 -42t29.5 -73q8 -36 8 -73q0 -11 -1 -23q-3 -49 -7 -96 q-6 -121 -10 -241q-1 -34 -1 -69q0 -86 7 -171q12 -152 36 -298.5t56 -293.5q18 -88 41 -175t45 -174q12 -49 27.5 -96t32.5 -96q2 -8 6 -29q1 -8 1 -16q0 -18 -7 -30q-10 -17 -31 -38q-16 -16 -35.5 -25t-38.5 -18q-22 -8 -45 -14h-9q-18 0 -36 6q-18 4 -39.5 16.5 t-40.5 34.5q-61 88 -94 186.5t-57 202.5q-14 63 -24.5 127t-16.5 129q-10 98 -21.5 193.5t-21.5 194.5q-2 27 -3 53t-5 57q-18 -23 -31.5 -42t-22.5 -42q-37 -98 -85 -191.5t-97 -187.5q-23 -39 -39 -79t-39 -78q-16 -29 -34.5 -54.5t-36.5 -50.5q-45 -55 -94.5 -103 t-114.5 -79q-86 -45 -181 -45q-18 0 -36 2q-53 4 -93 32.5t-71 71.5q-33 43 -48.5 92.5t-21.5 102.5q-9 60 -9 119q0 38 4 76zM390 726q1 -68 13 -134q4 -23 11.5 -46.5t23.5 -41.5h11q12 4 18 8q115 68 178 186q18 35 33.5 70t34.5 70q35 66 74.5 127t64.5 133 q20 55 47 108.5t49 106.5q29 70 57.5 139.5t49.5 140.5q6 23 10 45q2 9 2 19q0 15 -4 31q-23 -4 -42.5 -11.5t-37.5 -17.5q-74 -37 -144.5 -78t-136.5 -90q-53 -41 -100 -85t-76 -103q-12 -27 -25.5 -52.5t-23.5 -52.5q-16 -43 -31.5 -87t-25.5 -89q-10 -39 -14.5 -79 t-8.5 -81q-7 -60 -8 -120q1 -8 1 -16z" />
<glyph unicode="b" horiz-adv-x="1630" d="M0 1931v49q0 72 4 146q6 98 14 196q10 130 22 260q8 80 8 158q0 51 -3 101q-2 23 0 43t4 41q6 45 31.5 74.5t62.5 49.5q8 4 16.5 5.5t18.5 1.5q49 -4 85 -28t56 -71q20 -45 39 -89t31 -91q14 -61 16.5 -122.5t6.5 -123.5q3 -41 3 -82v-20q-1 -51 -1 -102v-205t2 -205 q2 -47 5 -96t5 -97q4 -59 8 -118.5t8 -118.5q4 -66 8.5 -129.5t10.5 -128.5q0 -16 4 -31.5t8 -38.5q6 16 10 29.5t9 25.5q31 100 61.5 201t77.5 195q51 104 111.5 199.5t144.5 177.5q66 63 143.5 102t169.5 45q11 1 22 1q128 0 208 -107q51 -70 69.5 -147t20.5 -161v-19 q0 -60 -10 -118q-12 -67 -29 -133q-31 -123 -81 -237.5t-116 -221.5q-16 -25 -30.5 -51.5t-30.5 -48.5q-16 -25 -32.5 -50.5t-33.5 -49.5q-16 -25 -34.5 -49.5t-37.5 -49.5q-18 -25 -36.5 -48t-36.5 -46q-20 -23 -40 -46.5t-42 -45.5q-66 -72 -136.5 -135.5t-148.5 -122.5 q-16 -12 -29.5 -29.5t-27.5 -34.5q-10 -14 -20.5 -28.5t-22.5 -28.5q-41 -47 -94.5 -73.5t-112.5 -43.5q-30 -8 -58 -9h-3q-27 0 -54 15q-27 12 -43 34t-28 46q-29 51 -39.5 106.5t-14.5 114.5q-8 104 -15 210t-15 212q-4 72 -10.5 144.5t-10.5 146.5q-8 117 -17.5 232.5 t-15.5 232.5q-4 111 -7 218.5t-7 217.5zM516 512l8 -4q8 8 13 10q57 53 111 106.5t108 110.5q4 4 4 8q45 59 90 117t86 117q45 63 87 127.5t83 130.5q35 61 66.5 124.5t66.5 127.5q63 121 84 248q8 41 10 81v9q0 35 -12 71q-6 16 -14.5 23.5t-24.5 11.5q-17 3 -33 3 q-57 0 -104 -33q-106 -74 -178 -183q-47 -72 -88 -146.5t-70 -156.5q-18 -55 -43 -108.5t-45 -106.5q-33 -92 -61.5 -184t-57.5 -185q-16 -53 -30.5 -107t-30.5 -110q-6 -25 -12.5 -50t-12.5 -52z" />
<glyph unicode="c" horiz-adv-x="1495" d="M12 936q16 151 51 303q27 111 61 217.5t85 206.5q88 172 220 286.5t327 149.5q30 6 62 6q12 0 24 -1q45 -3 88 -9q74 -10 143.5 -34.5t128.5 -73.5q31 -29 62.5 -59t50.5 -66q25 -52 25 -107q0 -58 -42 -110q-23 -4 -36 -4.5t-21 4t-14 14.5t-17 31q-4 8 -8 14 q-49 45 -101 86t-118 57q-23 6 -44 6t-44 2q-12 0 -33.5 -3t-44 -9t-41 -13t-24.5 -15q-88 -125 -159 -256.5t-97 -284.5q-26 -140 -38 -278q-5 -56 -5 -112q0 -83 10 -167q8 -74 17 -143.5t61 -127.5q23 -27 41 -47t45 -43q10 -8 36.5 -11t57.5 -3t58.5 4t37.5 10 q43 25 75 61t58 77q18 29 32.5 61.5t31.5 65.5q16 35 32.5 68.5t47.5 60.5q23 18 47 13t33 -34q8 -25 10 -50.5t-8 -51.5q-23 -72 -47.5 -141.5t-59.5 -135.5q-39 -72 -90 -135t-117 -111q-147 -109 -297 -109q-11 1 -21 1q-160 8 -306 147q-104 98 -155.5 221t-68.5 265 q-9 81 -9 161q-1 74 7 146z" />
<glyph unicode="d" horiz-adv-x="1869" d="M4 1221q-3 39 -3 77q1 82 15 162q22 117 70.5 213t116.5 146q25 18 49 35.5t53 31.5q73 40 147 48q32 4 65 3q43 0 87 -6q98 -10 184 -47t173 -80q72 -35 135 -82t125 -96q10 -10 20 -28.5t27 -28.5q0 14 1 57t2 90t2 88t1 54q8 115 17 209t20 208q8 86 18 173t21 173 q6 49 12 99.5t10 99.5q2 20 3 41t-1 41v8q0 32 14 58q16 30 44 50q28 22 62 28q13 2 25 2q22 0 44 -7q33 -10 49 -34.5t26 -53.5q24 -61 24 -123q0 -13 -1 -26q-6 -61 -12.5 -124t-10.5 -124q-6 -88 -11 -176t-9 -176q-2 -39 -3 -107.5t-2 -152.5t-2 -174.5t-1 -174.5 t-1 -152.5t-1 -107.5q0 -82 1 -163.5t5 -165.5q4 -102 10 -203t12 -203q4 -61 9.5 -122.5t7.5 -125.5q1 -22 1 -44q0 -34 -2 -68q-3 -56 -3 -111q0 -29 -17.5 -55.5t-44 -46t-57.5 -25.5q-10 -2 -20 -2q-20 0 -40 8q-23 10 -47 16.5t-43 24.5q-18 18 -29.5 39t-11.5 49 q-4 82 -9 164t-17 164q-2 10 -3 19.5t-3 19.5q-57 -6 -109 -14q-41 -6 -84 -5h-22q-117 0 -228.5 27t-222.5 68q-94 35 -182 80t-170 100q-70 47 -129.5 105.5t-96.5 135.5q-49 98 -59 220zM283 1271.5q0 -34.5 9 -71.5t30.5 -74.5t60.5 -74.5q68 -59 145.5 -110.5 t161.5 -86.5q92 -39 185.5 -68.5t191.5 -52.5q53 -12 106.5 -19t112.5 -18q2 44 4 98q1 27 1 53.5t-1 53.5q-2 53 -11 103.5t-30 91.5q-53 94 -99 154.5t-90 98t-85 61.5t-82 44q-88 45 -180 68.5t-191 27.5h-10q-99 0 -164 -73q-45 -68 -59 -140q-6 -31 -6 -65.5z" />
<glyph unicode="e" horiz-adv-x="1566" d="M-1 889q1 82 5 166q4 86 18.5 170t38.5 168q35 123 85.5 237.5t132.5 214.5q49 61 108 109.5t129 85.5q59 31 121.5 50t128.5 24q18 1 36 1q56 1 110 -9q72 -12 137 -60q16 -12 33.5 -23.5t35.5 -21.5q63 -41 109.5 -98.5t85.5 -122.5q39 -66 49 -140q4 -31 4 -62 q0 -44 -8 -89q-49 -254 -240 -436q-55 -53 -112.5 -103.5t-120.5 -93.5q-90 -59 -187.5 -96t-208.5 -41q-2 0 -18 -4q14 -88 43 -166t84 -143q47 -53 105.5 -80t127.5 -31q29 -2 50.5 11t44.5 30q47 41 86 89t71 101q47 72 86 145.5t70 151.5q16 37 37.5 62.5t62.5 32.5 q25 -2 43 -13q14 -9 22 -27q3 -7 4 -15q0 -14 -9 -32q-39 -86 -79 -169.5t-85 -167.5q-41 -80 -93 -153t-112 -140q-90 -107 -204 -161q-88 -42 -196 -42q-32 0 -65 4q-154 16 -262 96t-180 215q-49 98 -77 199.5t-38 210.5q-9 76 -9 151v15zM440 924q2 -23 5.5 -44t7.5 -46 q27 4 48 6t42 8q72 16 136 48t122 75q47 35 90 70.5t84 74.5q86 78 135 176.5t68 210.5q5 25 5 49q1 24 -5 48q-10 46 -45 88q-66 78 -155 101q-30 8 -61 8q-60 0 -120 -30q-80 -39 -138.5 -101t-97.5 -140q-66 -131 -94 -281q-15 -79 -23 -159q-5 -52 -5 -105q0 -28 1 -57z " />
<glyph unicode="f" horiz-adv-x="1880" d="M0 2025q-1 5 -1 9q0 21 15 40q17 25 43 27q133 12 265 27q104 13 209 13q28 0 55 -1q14 0 26.5 1t26.5 1q6 47 12 89t11 85q14 123 40.5 240t73.5 229q47 115 150 201q59 47 141 68q88 23 166 28q10 1 20 1q57 0 109 -21q61 -23 119 -60q35 -23 44 -56.5t19 -68.5 q2 -8 2 -15t2 -15q12 -39 12 -76q-1 -39 -8 -79q-6 -38 -13 -76t-9 -76q-13 -3 -24 -3q-48 0 -66 56q-8 23 -13.5 45t-7.5 45q-2 31 -20.5 55.5t-47 42t-63.5 22.5q-12 2 -23 2q-23 0 -44 -7q-31 -10 -52.5 -35t-31.5 -53q-14 -41 -24.5 -81t-16.5 -81q-23 -115 -31 -228 q-4 -43 -5 -88t-3 -92q45 -4 87 -6t83 -6q96 -8 190 -15.5t189 -17.5q47 -4 64.5 -20.5t33.5 -65.5q-16 -12 -31.5 -25.5t-32.5 -25.5q-12 -8 -20 -8h-124.5t-125.5 2q-68 2 -135.5 5t-134.5 5q-10 2 -19.5 2h-19.5q0 -37 -1 -69.5t1 -63.5q8 -139 16 -276.5t19 -274.5 q6 -100 23.5 -197.5t31.5 -195.5q16 -106 31.5 -213t25.5 -215q6 -68 13.5 -132.5t11.5 -138.5q1 -25 1 -46q0 -53 -7 -80q-10 -39 -27 -52q-10 -8 -23 -8q-8 0 -18 4q-16 8 -30.5 13.5t-28.5 15.5q-31 18 -60.5 35.5t-50.5 50.5q-45 72 -78.5 148.5t-58.5 156.5 q-41 135 -77 270t-70 271q-31 123 -45.5 245.5t-16.5 247.5q-2 53 -7 106.5t-5 106.5q-2 63 -2 127t2 129v51q-6 2 -9.5 3.5t-7.5 1.5q-123 4 -244.5 5t-244.5 5q-27 0 -51.5 3t-50.5 5q-20 4 -23 22z" />
<glyph unicode="g" horiz-adv-x="1775" d="M2 -190q12 150 90 266q16 27 47 39q23 9 49 9q8 0 17 -1q10 0 22.5 1t22.5 3q12 2 30.5 -1t36 -10t30.5 -17.5t20 -22.5q4 -12 2 -23q-4 -16 -9 -22q-39 -66 -48 -135.5t-9 -141.5q-2 -41 -3 -83v-6q0 -39 11 -77q20 -74 68 -135q57 -72 143 -97q38 -10 78 -10 q51 0 105 17q109 35 186.5 105.5t128.5 173.5q45 86 71.5 178t49.5 184q14 55 18 78.5t5 40t2 39t8 80.5q18 158 34.5 314.5t32.5 315.5q4 51 6 102.5t6 102.5q-4 2 -5 3t-5 3q-16 -23 -32.5 -45t-32.5 -45q-72 -92 -158 -163.5t-197 -116.5q-114 -46 -238 -46q-47 0 -96 7 q-88 16 -150.5 63t-105.5 123q-36 63 -36 127q0 3 1 5q1 67 21 132q33 115 98.5 209t151.5 174q84 78 173 145.5t196 110.5q100 41 202.5 69t212.5 38q4 25 5.5 46t5.5 44q4 20 7 40.5t7 41.5q6 27 15.5 34t37.5 9q22 3 43 3h10q27 -1 48 -28q4 -6 9 -13t7 -15 q10 -51 21.5 -102.5t21.5 -102.5q16 -78 31.5 -157t25.5 -159q31 -211 36 -422.5t5 -426.5q0 -160 -5 -317t-19 -316q-6 -78 -12.5 -122t-15.5 -80t-23.5 -78t-38.5 -116q-25 -76 -57 -147.5t-75 -136.5q-109 -164 -272 -281q-53 -37 -107.5 -65.5t-115.5 -46.5 q-81 -27 -159 -27q-24 0 -49 3q-101 11 -202 58q-98 47 -174 113t-137 152q-53 76 -81 158.5t-38 174.5q-8 74 -8 148q0 37 2 74zM553 985q0 -61 51 -61q14 0 31 4q111 29 201 91t165 144q92 104 154 223t102 252q6 14 7 29v8q0 41 -25 41q-13 0 -31 -10q-55 -29 -96 -61 q-72 -59 -143.5 -119t-143.5 -119q-63 -53 -115.5 -116.5t-93.5 -135.5q-51 -88 -63 -170z" />
<glyph unicode="h" horiz-adv-x="1581" d="M0 2251q-1 87 -1 173.5t1 172.5q2 172 2 346q0 39 23.5 69.5t66.5 36.5q9 1 18 1q50 0 91 -29q37 -25 54 -59.5t28 -75.5q18 -76 21 -152t7 -151q2 -70 6.5 -137.5t8.5 -135.5q2 -39 2 -77t2 -76q2 -37 3 -74t5 -74q4 -63 9 -125.5t11 -126.5q8 -66 8 -131q0 -19 -1 -39 q-3 -84 -7 -170q-1 -11 -1 -21q-1 -24 3 -48q4 -34 9 -70l4 -78t6 -80q4 -55 6 -110.5t6 -112.5q4 -51 7 -100t8 -101q2 -10 4 -19t4 -20q6 0 10 2q4 41 10 82t10 82q10 80 17.5 160t19.5 160q14 84 29.5 167t36.5 167q23 90 54.5 176t78.5 166q31 51 62.5 99t78.5 87 q16 14 33.5 27.5t36.5 23.5q23 14 47.5 15.5t50.5 -5.5q45 -10 85 -31.5t77 -47.5q16 -8 18 -15q23 -39 44.5 -75.5t33.5 -77.5q16 -53 25.5 -106.5t19.5 -108.5q6 -31 7 -64t10 -63q11 -47 11 -95q0 -22 -2 -42q-3 -28 -2 -56q0 -40 5 -80q4 -12 1 -25.5t-3 -27.5 q2 -47 3 -96t5 -97q6 -78 14.5 -157.5t16.5 -157.5q6 -78 11 -156.5t15 -156.5q4 -29 14.5 -55.5t18.5 -55.5q6 -23 6 -49q0 -25 -5 -48.5t-15 -45.5q-15 -41 -51 -41q-9 0 -19 2q-156 41 -223 178q-61 123 -95 253t-46 265q-15 166 -21 332q-2 59 -2 118q0 107 6 214 q3 52 3 104q0 43 -2 87q-5 95 -9 192q0 8 -3 15t-7 24q-18 -29 -33.5 -53.5t-26.5 -47.5q-43 -90 -76.5 -181t-54.5 -189q-6 -35 -16 -70t-18 -70q-10 -41 -17.5 -84t-15.5 -84q-23 -104 -37 -209q-16 -96 -27.5 -191t-25.5 -191q-8 -55 -19.5 -108.5t-31.5 -107.5 q-18 -49 -53.5 -84.5t-71.5 -68.5q-23 -20 -50.5 -35.5t-56.5 -30.5q-26 -12 -46 -12q-11 0 -19 3q-26 9 -50 44q-29 43 -49 90t-28 99q-10 66 -16.5 129t-14.5 129q-4 45 -10.5 90t-12.5 90q-18 152 -31.5 301t-15.5 303q-4 244 -6 485.5t-4 485.5z" />
<glyph unicode="i" horiz-adv-x="501" d="M0 1100q1 37 1 74v36q-1 56 -1 111q2 35 3 68.5t3 68.5q0 35 -1 68v22q0 22 1 45q2 41 12 82q12 49 58 73q24 12 48 12q22 0 44 -11q16 -8 27.5 -21.5t21.5 -27.5q18 -29 27.5 -59.5t17.5 -63.5q18 -79 26 -155q6 -60 5 -121v-33q-1 -35 -1 -70v-34q1 -50 1 -103h2 q4 -61 4 -121.5t4 -122.5l31 -430q2 -23 2 -42v-42q6 -53 10 -100q4 -41 6 -78q1 -12 1 -22q0 -20 -3 -29q-10 -40 -32 -60q-19 -17 -50 -17q-6 0 -12 1q-59 8 -93 44t-57 83q-16 31 -22 59q-6 27 -12 51.5t-11 51.5q-10 109 -21 215t-20 215q-8 96 -15 190q-5 73 -5 149v44 zM70 1974q-2 14 -2 26q0 18 5 32q9 24 23 41q16 18 41 30q2 1 6 2q7 0 21 -6q22 -8 45 -18q25 -10 44 -47t21 -66q0 -14 -9 -23.5t-24.5 -17.5t-32 -13t-30.5 -9q-12 -7 -28 -9q-5 -1 -11 0q-11 0 -21 4q-16 6 -29 22.5t-19 51.5z" />
<glyph unicode="j" horiz-adv-x="1046" d="M6 -551q0 14 5 26.5t9 26.5q10 27 43 17q10 -4 21.5 -10.5t15.5 -16.5q20 -29 38 -59.5t26 -65.5q14 -90 37 -172q16 -57 61 -86q31 -16 55 6q106 86 144 217q14 51 23.5 125t15.5 152t9 152.5t3 125.5q-2 131 -2 261t2 260q0 53 3 107t5 108q4 152 17.5 301t29.5 299 q10 100 19.5 199.5t19.5 197.5q4 31 7 61.5t8 63.5q4 16 9 29.5t21 23.5q20 10 34.5 8t25.5 -18q16 -25 30.5 -50.5t30.5 -51.5q25 -47 39 -97.5t20.5 -100.5t7.5 -102.5t3 -103.5q3 -118 3 -234v-58q-1 -145 -1 -292q0 -123 2 -244q1 -41 1 -82q0 -81 -3 -163 q-2 -84 -6 -166t-15 -164q-4 -35 -10 -92t-13 -118.5t-16.5 -118t-21.5 -89.5q-23 -63 -44.5 -124.5t-51.5 -120.5q-39 -74 -90.5 -137.5t-124.5 -106.5q-53 -33 -111 -43q-16 -3 -34 -3q-41 0 -85 17q-72 27 -110 92q-106 170 -106 367q0 23 1 47zM635 1968q-2 12 -2 24 t2 24q4 22 24 40q10 10 17.5 18.5t17.5 16.5q26 22 50 22q15 0 30 -8q10 -4 18.5 -7t18.5 -7q33 -14 42 -44q3 -9 3 -18q0 -21 -14 -40q-27 -39 -56 -55q-27 -13 -66 -13h-11q-10 4 -25 8.5t-31 12.5q-14 8 -18 26z" />
<glyph unicode="k" horiz-adv-x="2213" d="M0 2842v22q0 65 10 132q12 72 82 72q82 -4 141 -57q53 -49 82 -112t52 -128q35 -100 55 -201.5t37 -206.5q25 -154 47 -305t45 -305q2 -16 4 -32.5t6 -34.5q47 10 89 16t83 18q129 35 254 73t254 75q94 29 187.5 56.5t187.5 55.5q17 5 33 5q42 0 73 -35 q-14 -41 -41.5 -66.5t-62.5 -44.5q-45 -23 -91 -41t-93 -35q-111 -43 -222.5 -85t-222.5 -83q-27 -10 -54.5 -18t-60.5 -18q18 -18 27 -25q104 -63 205.5 -124.5t204.5 -127.5q92 -57 179 -114.5t177 -116.5q66 -41 129.5 -83t128.5 -85q27 -16 50.5 -37t45.5 -41 q43 -37 66 -94q2 -18 2 -33q-1 -34 -13 -52q-18 -26 -42 -32q-13 -4 -28 -4q-19 0 -40 6q-49 29 -99 54.5t-100 54.5q-133 78 -264 157.5t-264 159.5q-139 86 -276.5 174t-276.5 176q-16 10 -33.5 19.5t-44.5 5.5q8 -45 14.5 -88t12.5 -86q29 -190 55.5 -377t50.5 -375 q10 -74 10.5 -148.5t4.5 -148.5q-23 -84 -72 -121t-102 -47q-33 -7 -69 -7q-30 0 -62 5q-8 6 -13.5 14.5t-11.5 18.5q-45 74 -66.5 154.5t-33.5 166.5q-16 104 -28.5 205t-29.5 203q-23 156 -46 310.5t-46 307.5q-27 180 -49 367q-18 139 -35.5 277.5t-34.5 277.5 q-12 96 -24.5 190.5t-22.5 192.5q-8 77 -10 153z" />
<glyph unicode="l" horiz-adv-x="716" d="M0 1090q0 152 2 302t4 304q1 94 1 188v94v56q0 112 3 225q2 121 7.5 239.5t9.5 241.5q2 59 8 116.5t28 113.5q14 41 39 77q10 16 25.5 22.5t34.5 6.5h7q43 0 73 -22q32 -24 55 -66q47 -92 62.5 -189.5t19.5 -199.5q4 -96 6 -190.5t2 -190.5q2 -141 2 -281.5t-4 -281.5 q0 -94 -4 -187.5t-8 -187.5q-2 -90 -3 -177t-1 -175q0 -63 2 -125t4 -125q0 -47 2 -96.5t2 -98.5q1 -31 1 -62v-31q-1 -46 -1 -95q8 10 14 19.5t15 19.5q18 18 35.5 36.5t37.5 35.5q27 20 56 -3q12 -9 12 -19q0 -7 -6 -30q-23 -63 -54.5 -119.5t-66.5 -113.5 q-41 -61 -91 -86t-93 -29q-15 -2 -31 -2q-35 0 -70 10q-29 37 -47 78t-29 88q-25 117 -34 236t-13 237q-4 111 -9 218.5t-5 218.5z" />
<glyph unicode="m" horiz-adv-x="2187" d="M-1 1587q1 94 3 193q2 72 6 143.5t8 142.5q0 25 25 35q23 12 50 12q13 0 27 -3q42 -9 64 -44q23 -33 39.5 -66.5t26.5 -72.5q6 -35 16 -68.5t15 -68.5q8 -45 11 -91t9 -93q8 -72 9 -146.5t24 -152.5q16 41 28.5 74.5t26.5 68.5q31 72 61.5 143.5t67.5 139.5q29 53 73 95 t103 64q22 10 46 10t50 -10q23 -10 43.5 -20t42.5 -21q27 -14 42.5 -37.5t31.5 -46.5q115 -182 117 -395q0 -35 1 -69.5t3 -69.5q0 -4 6 -25q16 41 29.5 79t28.5 73q47 117 101 228.5t130 213.5q51 70 112.5 124t139.5 95q52 29 108 32h18q47 0 95 -13q31 -10 51.5 -31.5 t34.5 -50.5q94 -166 107 -352q4 -78 11 -155t11 -155q3 -63 3 -124q0 -31 -1 -62q-2 -92 -16 -184q-12 -94 -14 -188v-44q0 -73 4 -147q4 -47 5 -94t5 -95q0 -12 2 -24t4 -25q4 -18 3 -35.5t-13 -35.5q-10 -12 -15.5 -27.5t-9.5 -30.5q-8 -25 -24.5 -45t-36.5 -26 q-30 -11 -60 -23q-17 -7 -35 -6q-15 0 -30 4q-33 8 -43 47q-20 68 -32.5 136.5t-14.5 140.5q0 53 -1 107v22q0 43 3 86q4 70 10 139t10 139q4 45 4 88t4 88q4 47 12.5 96.5t14.5 96.5q8 66 16.5 128t14.5 128q4 59 7 118.5t7 118.5q1 13 1 26q0 44 -11 81q-6 20 -27 18 q-23 -2 -43 -7t-41 -17q-86 -53 -146.5 -128t-109.5 -161q-35 -63 -66.5 -129t-62.5 -133q-23 -49 -41 -99.5t-35 -101.5q-23 -72 -41 -142.5t-34 -142.5q-12 -55 -18.5 -110t-10.5 -111q-8 -90 -13.5 -178t-15.5 -178q-4 -49 -26.5 -92t-69.5 -72q-14 -8 -26.5 -17.5 t-24.5 -19.5q-4 -4 -8 -5t-9 -3q-12 -4 -26 -4q-22 0 -48 10q-42 16 -59 45q-27 41 -36 85t-15 91q-12 72 -20 144q-5 51 -5 103q0 21 1 42q0 12 -1.5 25.5t-3.5 27.5t-2 27.5t11 26.5q2 4 2 14q-2 25 -5.5 48.5t-3.5 45.5q0 31 2.5 61.5t2.5 63.5q2 10 0 22.5t-2 24.5 l18 215q4 43 8 85t8 85q6 53 12.5 107.5t10.5 107.5q3 38 3 74v18q-1 45 -20 93q-35 -29 -63.5 -61t-48.5 -73q-12 -25 -28.5 -48t-31.5 -48q-29 -53 -47 -109.5t-34 -113.5q-16 -53 -29.5 -105.5t-30.5 -105.5q-23 -86 -38 -170t-17 -174q0 -39 -4 -77t-4 -77 q0 -63 2 -125.5t6 -124.5q1 -18 1 -35.5t-1 -35.5q-1 -12 -1 -23q0 -24 3 -47q2 -14 1 -27.5t-1 -27.5q0 -35 -8 -60q-8 -23 -23.5 -35t-38.5 -18q-23 -8 -44 -8h-44q-14 0 -26.5 5t-24.5 11q-16 6 -23.5 12.5t-17.5 20.5q-33 47 -45 101q-8 35 -14.5 68.5t-12.5 68.5 q-10 72 -20 144.5t-21 143.5q-10 78 -19 153t-13 153q-18 258 -25 516q-3 77 -3 152v38z" />
<glyph unicode="n" horiz-adv-x="1470" d="M0 1319q0 92 5 184t9 187q6 117 19 241q4 35 14 70t33 65q23 33 55 35q29 4 53.5 -2t42.5 -35t29.5 -56.5t15.5 -61.5q4 -41 10.5 -79t12.5 -79q10 -57 15 -112.5t8 -114.5q4 -86 9 -170t9 -170q4 -92 8 -183.5t8 -183.5q2 -29 4 -56.5t7 -56.5h10q12 41 24.5 83t22.5 83 q16 70 36.5 136.5t49.5 132.5q29 72 60.5 144.5t66.5 143.5q31 63 64.5 125t68.5 121q29 49 57.5 96t61.5 95q20 31 46 58.5t50 55.5q14 16 27.5 29.5t27.5 30.5q26 32 69 32h3q23 -2 42.5 -4t39.5 -2q25 -2 39 -17.5t27 -31.5q16 -20 25 -42.5t15 -47.5q23 -100 26 -200 q1 -27 1 -54q0 -73 -6 -147q-6 -86 -13.5 -172t-11.5 -172q-10 -149 -14 -299q-2 -60 -2 -120q0 -90 4 -180q4 -72 7 -143.5t16 -142.5q4 -23 7 -42.5t7 -39.5q5 -20 5 -34t-11 -30q0 -2 -1 -2t-1 -2q4 -35 -15.5 -51t-46.5 -29q-27 -10 -51 -21t-53 -22q-20 -7 -41 -7 q-22 0 -46 8q-46 14 -73 49q-6 8 -7 18t-5 20q-2 8 -2 15.5t-2 15.5q-38 196 -38 398q0 28 1 57q0 45 -1 89v18q0 35 3 71q4 72 11 143.5t14 143.5q6 59 13 118.5t17 118.5q6 47 15.5 94.5t17.5 94.5q14 88 30.5 175t20.5 177q2 12 1 24.5t-1 28.5q-63 -45 -102 -102 q-23 -35 -42.5 -71t-39.5 -70q-23 -39 -46.5 -78t-45.5 -78q-25 -43 -43 -86q-29 -61 -56.5 -121.5t-56.5 -122.5q-12 -29 -22.5 -60.5t-20.5 -62.5q-27 -80 -52.5 -159.5t-49.5 -159.5q-14 -41 -22.5 -83t-20.5 -83q-16 -59 -20.5 -121.5t-14.5 -124.5q-4 -29 -11.5 -57.5 t-11.5 -57.5q-4 -27 -6 -52t-10 -50q-10 -41 -29 -74q-8 -16 -17 -24t-28 -19q-14 -6 -29.5 -7t-31.5 -1t-29.5 1t-23.5 13q-45 47 -68 103q-33 82 -49.5 165t-26.5 169q-10 98 -22.5 196.5t-18.5 196.5q-6 117 -7 234.5t-1 236.5z" />
<glyph unicode="o" horiz-adv-x="1501" d="M6 991q10 111 32.5 217.5t59.5 210.5q53 156 137 290t211 243q168 143 392 153q13 1 26 0q89 1 161 -35q83 -42 149 -122q74 -92 113.5 -197.5t66.5 -216.5q16 -68 25.5 -135.5t19.5 -136.5q10 -58 17 -116q4 -37 4 -66q0 -17 -1 -31q-2 -98 -6 -175t-22 -149 q-16 -61 -35 -121.5t-47 -120.5q-29 -55 -59.5 -108t-61.5 -107q-33 -53 -78 -94t-94 -76q-4 -4 -7 -5t-8 -5q-66 -57 -143.5 -72.5t-159.5 -15.5q-35 0 -69.5 7t-69.5 13q-174 35 -287.5 139.5t-181.5 260.5q-62 136 -80 280q-11 82 -10 165q0 63 6 126zM446 846 q2 -74 27 -171t86 -192q66 -98 159 -145q77 -39 172 -39q20 0 42 2q29 4 55.5 14.5t52.5 22.5q53 27 83 74t57 98q41 84 57 172t25 178q8 78 8 154t-17 151q-10 53 -18 106.5t-21 106.5q-16 76 -39.5 150t-64.5 139q-37 61 -84 110.5t-117 77.5q-39 15 -70 15q-15 0 -28 -4 q-39 -12 -78 -62q-109 -141 -174 -313q-53 -145 -81 -300t-32 -345z" />
<glyph unicode="p" horiz-adv-x="1472" d="M0 1833v13q0 50 14 96q15 51 37 102q23 47 68 54q10 2 21 2q36 0 77 -19q39 -16 64.5 -47t40.5 -72q31 -98 54 -194.5t32 -198.5q2 -16 5 -33t7 -37q47 66 91 126.5t91 117.5q57 68 119.5 127t138.5 106q121 75 258 75q28 0 56 -3q53 -4 96 -32.5t78 -69.5q10 -12 13 -31 t5 -35q1 -18 1 -36q0 -41 -6 -80q-9 -58 -24 -115q-16 -66 -42.5 -123.5t-57.5 -116.5q-35 -66 -80 -121t-96 -106q-72 -72 -154 -134.5t-186 -91.5q-53 -16 -107.5 -31.5t-113.5 -31.5q2 -35 3 -72t5 -78q6 -88 17.5 -175t13.5 -177q0 -61 13 -122.5t23 -125.5 q4 -31 9.5 -49t9.5 -33.5t9 -34t9 -51.5q10 -76 21.5 -150.5t23.5 -150.5q16 -111 27 -219q7 -78 7 -158q0 -30 -1 -61q-2 -37 -3 -72.5t-5 -72.5q-4 -31 -7 -63t-9 -60q-4 -16 -18.5 -27.5t-33.5 -16.5q-10 -3 -21 -3q-8 0 -17 2q-21 4 -35 16q-35 29 -62.5 62.5 t-46.5 74.5q-18 43 -37.5 87t-32.5 89q-29 102 -51 204t-45 204q-14 59 -26.5 115.5t-20.5 113.5q-6 47 -12 80t-11.5 62.5t-9.5 62.5t-10 80q-10 80 -18 159t-19 159q-10 88 -19 174t-20 172q-8 53 -16 107l-16 108q-10 80 -21.5 159.5t-21.5 159.5q-10 100 -17 200 q-5 64 -5 131q0 35 1 71q0 16 -2 30.5t-2 28.5zM545 1217q8 -8 14 -13q45 25 92 46.5t88 49.5q158 106 275 248q59 70 83.5 149t26.5 171q-90 -10 -151 -60q-35 -29 -67 -60.5t-66 -59.5q-98 -86 -165 -191.5t-116 -224.5q-4 -14 -7 -27.5t-7 -27.5z" />
<glyph unicode="q" horiz-adv-x="1869" d="M0 1630v23q0 85 26 157q29 82 83.5 143.5t126 100.5t151.5 49q55 8 107 8q101 0 193 -29q140 -44 267 -138q47 -35 89 -80t85 -86q10 -10 18.5 -19.5t22.5 -25.5q4 37 8.5 67.5t8.5 59.5q6 49 12 97t12 97q4 37 24.5 63.5t45.5 51.5q12 12 27 12q31 2 61 2q27 0 57.5 -2 t57.5 -10q4 -18 8 -95t8 -237q4 -35 6 -68.5t2 -68.5v-23.5t-2 -23.5q8 -213 17.5 -534.5t23.5 -778.5q8 -66 19.5 -204t32 -323.5t49 -408.5t69.5 -459q-10 -37 -37.5 -54t-58.5 -21q-18 -3 -38 -3t-42 3q-14 8 -26.5 17t-22.5 26q-16 29 -32.5 58.5t-31.5 59.5 q-43 96 -69.5 194.5t-48.5 201.5q-14 68 -21.5 107.5t-12.5 75.5t-9 77t-11 108q-6 70 -14 130.5t-16 119.5t-16.5 119.5t-14.5 130.5q-10 131 -18.5 261t-16.5 263q-4 96 -6 190.5t-6 192.5q-4 20 -6 45q-16 -6 -31.5 -10t-32.5 -10q-143 -53 -287 -61q-22 -1 -43 -1 q-124 0 -249 37q-98 29 -187.5 75t-167.5 114q-45 37 -73.5 83t-55.5 95q-14 33 -14 59zM274 1715q-2 -12 -2 -24q0 -42 29 -83q53 -80 128 -127t165 -74q63 -18 126.5 -20.5t129.5 -4.5h11q74 0 141 26q71 28 145 62q-35 53 -76 93.5t-82 78.5q-86 78 -177 140.5t-208 91.5 q-42 11 -82 11q-106 0 -194 -77q-43 -39 -54 -93z" />
<glyph unicode="r" horiz-adv-x="1312" d="M0 2038q2 6 18.5 14t38 14.5t44 11.5t34.5 9q2 2 8 2q2 0 2 2v-2q12 4 23.5 4h21.5q23 0 31 -14.5t21 -32.5q41 -66 67.5 -140.5t46.5 -152.5q14 -53 23.5 -106.5t19.5 -106.5q0 -4 1 -7t3 -13q8 16 14.5 28.5t10.5 22.5q39 94 104 182q53 70 108.5 137.5t125.5 122.5 q14 12 29.5 23.5t31.5 25.5q37 29 79 36q27 4 55 4q16 0 32 -1q18 -2 30.5 -14t23.5 -27q45 -55 62.5 -118.5t27.5 -131.5q12 -84 19 -166q5 -63 5 -129v-38q0 -18 -2 -37t-6 -35l-12 -117q-23 -10 -36 -7t-28 24q-57 72 -65 155q-8 59 -11.5 120.5t-11.5 121.5 q-6 43 -17 87t-22 87q-4 14 -11 27.5t-15 29.5q-20 -16 -40 -29.5t-36 -29.5q-72 -70 -135.5 -146.5t-116.5 -162.5q-49 -80 -85 -166t-58 -178q-4 -10 -4 -23.5v-26.5q6 -53 13 -105t17 -105q14 -66 21.5 -133.5t17.5 -135.5q4 -20 7 -38.5t7 -37.5q4 -43 9.5 -86t9.5 -84 q6 -41 12 -84t12 -83q4 -18 8.5 -37t8.5 -37q4 -14 2 -28.5t-4 -29.5q-2 -27 -7 -52t-22 -46l-12 -12q-16 -14 -43 -14q-20 -10 -55 -18.5t-71 -8.5t-65.5 11t-40.5 40q-27 84 -52 213t-50 283.5t-47.5 323.5t-42 334t-34.5 314.5t-26.5 264t-16.5 184.5t-5 74z" />
<glyph unicode="s" horiz-adv-x="1261" d="M1 598q5 54 22 109q14 45 32.5 87t34.5 89q49 -45 89 -92.5t52 -114.5q10 -59 26.5 -115.5t51.5 -107.5q23 -31 47.5 -54.5t53.5 -46.5q25 -18 53.5 -23t56.5 -3q25 4 41 16q25 23 45.5 49.5t30.5 61.5q29 96 33 192v23q0 85 -25 172q-16 61 -45 115.5t-63 105.5 q-41 57 -81 112.5t-75 114.5q-43 72 -79 145.5t-56 155.5q-11 47 -11 97q0 14 1 28q4 64 25.5 124t59 111.5t91.5 88.5q16 10 32.5 20t32.5 21q47 29 101 36q21 3 41 3q33 0 66 -8q52 -12 99 -36t82 -57q72 -70 133 -155q23 -31 38.5 -65t31.5 -68q10 -23 18.5 -43.5 t18.5 -43.5q4 -11 4 -21q0 -17 -12 -34q-6 -10 -14.5 -16t-22.5 -2q-29 2 -31 30q-4 18 -7 37t-9 35q-27 66 -68 121t-100 94q-25 16 -55.5 25.5t-59.5 17.5q-18 4 -36.5 -1t-32.5 -21q-39 -45 -64 -95.5t-29 -109.5q-2 -29 6.5 -55.5t20.5 -49.5q41 -82 89 -156.5 t99 -148.5q41 -55 78 -112.5t70 -118.5q88 -164 98 -350q1 -30 1 -60q0 -67 -6 -131q-9 -94 -38 -186q-29 -109 -91 -187.5t-169 -123.5q-45 -19 -90 -21q-17 -1 -35 0q-28 0 -57 2q-145 12 -262 92q-45 33 -83 72t-73 80q-84 109 -117 241q-10 41 -10 81q0 14 1 28z" />
<glyph unicode="t" horiz-adv-x="1536" d="M-2 2388q6 45 53 51q55 6 110.5 11.5t108.5 11.5q88 8 174 12q43 2 86 2l86 -2q4 0 16.5 1t16.5 3q4 29 8.5 57.5t8.5 57.5q10 59 19 109.5t20 109.5q4 31 10 61.5t10 61.5v18v12q0 70 66 87q35 10 69 11h2q32 0 60 -26q25 -20 40 -44.5t9 -61.5q-4 -29 -3 -59.5t1 -59.5 q0 -61 -7.5 -115.5t-7.5 -116.5v-96h49.5t49.5 -2q92 0 182 -7t180 -30q20 -4 40 -12l40 -16q6 -4 11 -9.5t14 -9.5q-20 -23 -42 -27t-44 -4q-31 -1 -62 -1h-30h-17q-36 0 -74 -3q-68 -4 -134 -9t-134 -9q-6 -2 -12 -3t-17 -5v-46t-1 -81t-1 -99.5t-1 -99.5t-1 -81v-46v-287 q0 -49 2 -143t5.5 -213t7.5 -248t11 -246.5t14 -213t18 -142.5q14 -74 31.5 -147.5t43.5 -145.5q4 -12 6.5 -25.5t6.5 -25.5q6 -16 12 -31.5t14 -29.5q16 -29 31.5 -55.5t32.5 -55.5q14 -25 5 -42t-38 -26q-29 -6 -57 -6q-21 -1 -40 3q-46 8 -93 24q-72 23 -120 69t-85 111 q-55 100 -85 205.5t-52 216.5q-6 29 -10.5 103.5t-7.5 173t-5 209t-4 209t-2 173v103.5q2 78 2 152.5t4 150.5q2 25 5 73t7 108.5t8.5 126t8.5 126t7 108.5t5 72v21q-10 2 -27.5 4t-27.5 2h-305q-35 0 -71 -3q-22 -2 -44 -2q-15 0 -29 1q-18 0 -37.5 4t-38.5 10 q-16 6 -30.5 15.5t-30.5 17.5z" />
<glyph unicode="u" horiz-adv-x="1359" d="M0 1317q-1 26 -1 52q0 51 3 103l8 156q4 92 12.5 181t14.5 182q4 35 24.5 67.5t61.5 40.5q14 4 27.5 8t27.5 9q8 1 15 1q60 0 90 -59q14 -27 24 -54.5t10 -59.5v-14q-1 -32 7 -63q10 -38 14 -77q4 -29 6 -59.5t4 -59.5q4 -86 7 -171t7 -171q4 -53 5.5 -103t5.5 -104 q2 -41 3 -84t7 -86q6 -47 6 -95v-23v-14q0 -53 14 -105q6 -31 21 -56q16 -31 37 0q12 20 23.5 41t17.5 43q16 66 31.5 130.5t31.5 130.5q23 84 43.5 165.5t44.5 163.5q18 55 42 107.5t46 105.5q10 27 23.5 51.5t23.5 51.5q45 109 127 204q14 14 25 37q25 57 86 58h61.5 t61.5 -2q29 -2 39 -12.5t18 -37.5q8 -29 7 -55t-1 -55q0 -45 4 -90q2 -24 3 -48q0 -22 -2 -44q-4 -92 -12.5 -184.5t-14.5 -184.5q-4 -61 -6 -123.5t-6 -124.5q-2 -41 -4.5 -82t-4.5 -82q-2 -39 -4 -77q-1 -19 -1 -38.5t1 -39.5q2 -68 6.5 -136.5t8.5 -138.5q0 -23 2 -43 t8 -43q9 -30 9 -58v-5q-1 -30 -3 -64q-2 -10 -4 -21.5t-12 -21.5t-18.5 -25.5t-18.5 -29.5q-4 -4 -7 -9t-8 -10q-32 -29 -66 -48q-30 -17 -72 -17h-9q-61 2 -92 51q-10 16 -18.5 34.5t-14.5 37.5q-31 100 -45 200.5t-14 204.5q0 152 3 301.5t19 298.5q6 47 13.5 91.5 t15.5 91.5q2 10 3 22t3 23q-2 0 -3 1t-3 1q-10 -23 -19.5 -45.5t-17.5 -44.5q-29 -92 -55.5 -185.5t-55.5 -185.5q-18 -57 -34.5 -115.5t-40.5 -113.5q-27 -53 -64 -94.5t-92 -63.5q-10 -4 -19.5 -12.5t-19.5 -14.5q-34 -19 -68 -31q-22 -8 -48 -8q-13 0 -27 2 q-68 12 -111 62q-35 41 -59.5 88t-40.5 100q-25 80 -37 161t-19 165q-6 74 -12 148.5t-8 148.5z" />
<glyph unicode="v" horiz-adv-x="1681" d="M0 1937q0 16 4 32l8 32q4 10 6 20.5t7 20.5q11 44 45 58q12 5 24 5q23 0 45 -18q41 -29 70 -69t51 -83q55 -111 99 -222t92 -224q35 -78 68.5 -157t68.5 -156q37 -92 72.5 -182.5t74.5 -182.5q41 -98 84 -194.5t86 -194.5q2 -4 5.5 -10.5t7.5 -18.5q14 29 25 49.5 t20 42.5q49 135 94 268.5t80 272.5q18 78 37.5 152.5t39.5 150.5q18 66 37 130.5t39 127.5q29 90 55.5 177t55.5 175q10 29 24.5 54.5t40.5 46.5q16 14 36 20t44 -4q-2 -10 -2 -18t-2 -17l-12 -79q-4 -16 -7 -35t-7 -35q-14 -47 -27.5 -91t-28.5 -89q-10 -31 -18 -62 t-19 -61q-33 -96 -52 -193.5t-44 -195.5q-35 -147 -66.5 -295t-76.5 -295q-29 -90 -60.5 -176t-76.5 -170q-25 -45 -50.5 -88t-52.5 -86q-2 -2 -2 -5.5t-2 -3.5q-18 -2 -29.5 -15t-25.5 -19q-16 -8 -35 -9.5t-35 -5.5q-8 -2 -15 -1t-16 -3q-22 -11 -42 -11q-32 0 -62 26 q-37 31 -55 67q-55 111 -105 221q-47 111 -91 219.5t-89 219.5q-29 78 -56.5 154.5t-56.5 154.5q-18 49 -36.5 97t-34.5 95q-43 129 -81 257t-61 261q-8 41 -10 84t-4 84z" />
<glyph unicode="w" horiz-adv-x="2148" d="M4 1622q-4 29 -4 57q0 72 25 146q10 29 41 41q27 8 45 -13q61 -76 102 -161.5t70 -178.5q25 -78 50 -156.5t48 -156.5t42 -156.5t42 -156.5q35 -115 56.5 -230.5t64.5 -226.5q0 -2 10 -20q8 35 14 64.5t13 57.5q29 143 56.5 287t61.5 285q18 78 44 155.5t77 143.5 q4 4 5 9t3 9q12 37 52 39q29 0 50 -6t42 -33q45 -63 76.5 -130.5t66.5 -135.5q37 -76 70 -152.5t67 -154.5q74 -156 152 -316q2 -6 14 -24q10 31 20.5 57.5t16.5 55.5q20 86 39.5 169.5t36.5 170.5q37 186 77 371.5t99 365.5q29 90 59.5 178t79.5 170q20 35 44 48t61 13 q3 -19 3 -38q0 -9 -1 -19q-2 -28 -8 -57q-12 -53 -20.5 -109.5t-20.5 -111.5q-16 -76 -34 -151t-34 -153q-29 -125 -60.5 -247.5t-50.5 -251.5q-10 -84 -23 -166t-28 -166q-16 -90 -47 -173t-74 -163l-18 -37q-47 -104 -141 -160q-16 -10 -35 -13t-37 -7q-16 -4 -29.5 3 t-27.5 17q-47 33 -76 76t-55 90q-82 147 -146.5 299t-111.5 312q-6 23 -12.5 42t-12.5 40h-8q-10 -43 -22.5 -86t-20.5 -86q-18 -102 -34.5 -202t-33.5 -202q-10 -45 -19.5 -89t-19.5 -89q-4 -14 -7 -27.5t-5 -27.5q-10 -59 -39 -107q-24 -39 -62 -46q-8 -2 -18 -2 q-29 0 -59 19q-35 20 -58.5 49t-42.5 64q-111 180 -178 385q-25 72 -49 144.5t-43 144.5q-29 104 -54.5 209.5t-47.5 212.5q-20 98 -36 197.5t-32 197.5z" />
<glyph unicode="x" horiz-adv-x="1699" d="M0 1991q4 37 18 71q12 32 46 42q11 3 22 4q22 0 43 -13q37 -27 70 -61q41 -41 82 -83t79 -87q55 -66 108.5 -131.5t106.5 -130.5q59 -70 120 -138.5t120 -136.5q2 -2 5 -4t9 -8q31 47 60 91t57 91q59 100 126 194.5t145 182.5q31 35 63.5 67.5l67.5 67.5q16 15 31 15 q17 0 32 -21q18 -23 18 -54q1 -9 -1 -18q-6 -43 -35 -67q-16 -14 -30.5 -29.5t-25.5 -32.5q-47 -68 -93 -136.5t-93 -137.5q-51 -78 -102.5 -157t-102.5 -157q-14 -23 -13 -29.5t17 -29.5q70 -86 139.5 -172t137.5 -174q43 -53 84 -106.5t80 -108.5q25 -35 43 -73t39 -77 q14 -25 27 -51t30 -51q9 -11 9 -21q0 -7 -5 -14q-16 -23 -30.5 -45t-33.5 -41q-18 -18 -40.5 -18t-43.5 10q-164 80 -284 213q-55 61 -106.5 124.5t-104.5 127.5q-37 45 -74 89t-76 91q-6 -4 -13 -9t-11 -11q-16 -27 -29.5 -53.5t-28.5 -55.5q-12 -23 -23 -47.5t-24 -48.5 q-33 -66 -64.5 -129.5t-60.5 -128.5q-31 -66 -64.5 -126.5t-74.5 -117.5q-39 -57 -76 -106q-4 -8 -10 -14.5t-12 -14.5q-20 20 -21.5 39.5t2.5 40.5q6 33 13.5 63.5t13.5 61.5q4 23 6 44t8 44q20 80 49 156.5t64 152.5q27 59 55.5 115.5t57.5 113.5q20 35 42.5 70t45.5 70 q10 16 19 30.5t20 30.5q-29 41 -57.5 79t-57.5 79q-39 51 -76 102t-78 101q-82 98 -147.5 203.5t-136.5 209.5q-18 27 -32.5 56.5t-27.5 58.5q-13 30 -13 59q0 8 1 15z" />
<glyph unicode="y" horiz-adv-x="1861" d="M-2 -292q2 71 20 142q8 33 29 62t37 57q23 39 55.5 64.5t65.5 54.5q12 10 24.5 20.5t26.5 20.5q10 4 23.5 8t19.5 0q10 -6 15 -19.5t10 -25.5q2 -12 -1.5 -24.5t-7.5 -24.5q-17 -75 -17 -145q0 -80 22 -153q42 -138 147 -259q94 -111 235 -135q33 -6 64 -6q58 0 110 19 q80 30 150 91q68 61 108 138t64 163q43 147 62 301q14 135 23 271.5t17 273.5q6 100 6.5 200.5t4.5 201.5q4 125 10 248.5t12 248.5q2 43 3 86t3 84q-8 4 -10 6q-31 -53 -62.5 -103t-56.5 -106q-49 -111 -96 -222t-94 -224q-23 -53 -39 -106.5t-37 -106.5q-18 -47 -36.5 -91 t-39.5 -89q-23 -51 -60.5 -83t-88.5 -52q-27 -10 -49.5 1t-44.5 19q-80 27 -125 111q-39 74 -61.5 151.5t-43.5 157.5q-29 111 -39 220.5t-20 221.5q-12 106 -16.5 213t-4.5 213q2 51 5.5 101.5t7.5 99.5q2 27 12 55q12 39 44 50q11 4 22 4q22 0 45 -15q41 -23 67 -72 q43 -86 57.5 -174t22.5 -180q6 -90 15.5 -179t15.5 -179q10 -106 28.5 -209t40.5 -207q4 -23 12.5 -47.5t18.5 -52.5q6 12 10 19t9 15q35 96 66.5 191.5t70.5 191.5q66 162 138.5 320t176.5 301q14 20 30.5 39.5t33.5 38.5q23 29 53.5 48t64.5 32q31 12 64 30q25 15 49 15 q8 0 15 -2q32 -6 49 -41q16 -41 28 -81t23 -81q39 -174 54 -348t26 -350q12 -217 15 -433q1 -49 1 -99q0 -166 -8 -333q-6 -123 -21.5 -242.5t-38.5 -240.5q-14 -74 -37.5 -143.5t-52.5 -139.5q-39 -90 -91 -168.5t-124 -148.5q-203 -190 -475 -244q-61 -12 -119 -12 q-78 0 -150 21q-126 36 -241 122q-125 94 -203.5 218t-124.5 272q-22 68 -22 135v9z" />
<glyph unicode="z" horiz-adv-x="2131" d="M0 152v11q0 55 18 105q20 56 45 109q53 117 128 217t157 199q43 53 88 103t92 101q6 8 12.5 16.5t16.5 18.5h-70.5t-68.5 -2q-23 0 -44.5 -2t-43.5 -4q-16 -2 -33.5 -2t-34.5 -4q-37 -4 -49 26q-6 16 3 26.5t20 14.5q41 18 90 31q23 8 42 14.5t42 12.5q29 8 58.5 15 t57.5 13q29 6 57.5 11.5t57.5 7.5q49 2 89 20.5t75 53.5q117 106 231.5 210.5t231.5 208.5q6 4 13 8.5t13 8.5q-2 4 -4 6t-4 6h-178q-29 0 -58.5 -1t-58.5 1q-121 6 -240.5 11.5t-242.5 15.5q-66 4 -132.5 14t-131.5 21q-63 10 -95 53t-53 96q-10 25 -4 35t29 22 q39 20 79 30.5t81 14.5q104 10 205.5 22.5t205.5 25.5q31 4 60.5 6t60.5 5q133 6 264 10.5t264 10.5q66 2 129.5 4t128.5 2q29 -2 56.5 -8t56.5 -12q41 -10 80 -23.5t80 -25.5q14 -4 29.5 -17.5t29 -31t22.5 -34.5t9 -34q0 -30 -25 -47q-41 -23 -69.5 -56.5t-57.5 -68.5 q-41 -51 -82.5 -101t-87.5 -98q-59 -66 -121.5 -127t-123.5 -122q-10 -10 -18.5 -19.5t-20.5 -23.5q104 -14 204.5 -28.5t194.5 -59.5q10 -20 -10 -29q-16 -8 -34.5 -15.5t-37.5 -11.5q-88 -27 -177 -32t-181 -7q-20 -2 -41 -5t-41 1q-9 1 -17 1q-30 0 -52 -12 q-28 -15 -54 -44q-88 -94 -178 -185.5t-176 -187.5q-82 -92 -157 -187t-153 -192q-10 -10 -16 -22.5t-16 -28.5q23 0 28 2q119 41 238 83t242 71q70 16 138 37.5t140 40.5q86 23 173 43t179 22q16 1 31 1q31 0 63 -3q48 -4 95 -8q6 0 13 -2t13 -4q20 -6 31.5 -10.5t17 -12.5 t5.5 -20.5t-2 -36.5q-31 -23 -52 -47q-18 -18 -43.5 -30.5t-50.5 -23.5q-25 -8 -51.5 -11t-52.5 -7q-70 -6 -137.5 -22.5t-133.5 -32.5q-137 -35 -273 -69t-273 -68q-29 -8 -56.5 -17.5t-56.5 -19.5q-90 -29 -179 -46.5t-184 -17.5q-30 0 -60 -2q-10 -1 -20 -1q-20 0 -38 3 q-27 4 -52.5 15.5t-50.5 23.5q-31 16 -42 44t-13 61z" />
<glyph unicode="&#xa1;" horiz-adv-x="649" d="M14 -920q29 55 40.5 113.5t29.5 118.5q18 55 31.5 113.5t27.5 115.5q29 111 44.5 223.5t29.5 225.5q6 53 15.5 106.5t19.5 106.5q8 55 16 111.5t19 111.5q8 47 15 93t17 93q4 20 8.5 32.5t12.5 21t21.5 15.5t35.5 17q33 -35 50.5 -75.5t23.5 -85.5q12 -80 13 -159 t-9 -159q-6 -53 -9 -105.5t-9 -105.5q-6 -57 -14.5 -112.5t-16.5 -110.5q-10 -59 -19.5 -117.5t-21.5 -118.5q-23 -111 -50.5 -217t-72.5 -211q-16 -39 -35.5 -75.5t-40.5 -73.5q-16 -35 -41.5 -42t-60.5 5q-47 16 -69.5 59t-0.5 86zM276 1161q4 8 9.5 15.5t15.5 19.5 q29 0 54.5 1t54.5 -1q43 -2 62.5 -25.5t8.5 -64.5q-4 -8 -10 -16.5t-14 -10.5q-29 -8 -54.5 -12t-54.5 -8q-25 -4 -41 8t-28 29q-27 29 -3 65z" />
<glyph unicode="&#xad;" d="M-0.5 1110q2.5 25 29.5 35q35 12 70.5 20.5t72.5 12.5q203 16 401.5 28.5t395.5 26.5q66 0 125 1t118 -3q51 -2 101.5 -8t99.5 -13q23 -4 38 -15t19 -34q2 -23 -3 -43t-27 -33q-20 -12 -40 -23t-42 -18q-119 -37 -239 -45t-242 -12q-129 -4 -255 -6t-255 -4h-123t-121 31 q-59 29 -103 61q-23 16 -20.5 41z" />
<glyph unicode="&#xd7;" horiz-adv-x="919" d="M0 1481.5q2 19.5 10 38.5q6 18 24.5 23t35.5 -5q10 -8 19 -16.5t20 -16.5q23 -23 44 -46t44 -46q29 -35 57.5 -71.5t58.5 -71.5q31 -37 64 -74t65 -76q3 0 9 -6q16 27 31.5 50.5t31.5 47.5q66 113 145 207q35 37 72 72q18 18 35 -2q12 -16 9 -39t-19 -37q-8 -8 -16.5 -15 t-14.5 -18q-25 -39 -50.5 -75.5t-49.5 -73.5q-29 -43 -55.5 -86t-55.5 -84q-8 -14 -8 -18.5t10 -14.5q37 -47 75 -94t75 -94q23 -29 45 -57.5t45 -59.5q12 -18 22 -38.5t21 -41.5q8 -14 15 -28.5t17 -26.5q6 -14 3 -21q-10 -12 -18.5 -24.5t-18.5 -22.5t-21.5 -9t-23.5 5 q-43 23 -82 51.5t-72 65.5q-29 33 -57.5 66.5t-57.5 68.5q-20 25 -39.5 49.5t-42.5 48.5q-4 -4 -7 -5t-5 -5q-8 -16 -15 -29.5t-16 -29.5q-6 -12 -13 -25.5t-13 -26.5l-68 -141q-33 -76 -76 -133q-10 -14 -20 -28.5t-21 -28.5q-4 -4 -6 -7.5t-6 -7.5q-10 10 -11 21.5t1 21.5 q4 16 7 34t7 34q4 12 4 24.5t4 22.5q10 43 26.5 85t35.5 83q27 59 61 125q10 20 22.5 38.5t24.5 37.5q6 8 11.5 15t11.5 17q-16 23 -31.5 43.5t-32.5 42.5q-20 29 -40.5 55.5t-42.5 55.5q-43 53 -79 110.5t-75 112.5q-10 16 -17.5 31.5t-15.5 32.5q-8 20 -6 39.5z" />
<glyph unicode="&#xf7;" horiz-adv-x="1562" d="M-0.5 1030q2.5 25 29.5 35q35 12 70.5 20.5t72.5 12.5q203 16 401.5 28.5t395.5 26.5q66 0 125 1t118 -3q51 -2 101.5 -8t99.5 -13q23 -4 38 -15t19 -34q2 -23 -3 -43t-27 -32q-20 -12 -40 -23.5t-42 -17.5q-119 -37 -239 -45.5t-242 -12.5q-129 -4 -255 -6t-255 -4h-123 t-121 31q-59 29 -103 61q-23 16 -20.5 41zM573.5 582.5q-4.5 25.5 10.5 42.5q12 16 25.5 30.5t29.5 30.5q10 10 20.5 21.5t22.5 19.5q16 10 33.5 18.5t34.5 12.5q29 6 56 -3.5t52 -23.5q53 -33 37 -86q0 -35 -5 -57.5t-17.5 -37.5t-33 -25.5t-51.5 -18.5q-53 -16 -103 -12 t-91 47q-16 16 -20.5 41.5zM573.5 1369q-4.5 26 10.5 42q12 16 25.5 30.5t29.5 31.5q10 10 20.5 21t22.5 19q16 10 33.5 18.5t34.5 12.5q29 6 56.5 -3t51.5 -23q53 -33 37 -86q0 -35 -5 -57.5t-17.5 -38t-33 -26t-51.5 -18.5q-53 -16 -103 -12t-91 47q-16 16 -20.5 42z" />
<glyph unicode="&#x2000;" horiz-adv-x="1560" />
<glyph unicode="&#x2001;" horiz-adv-x="3121" />
<glyph unicode="&#x2002;" horiz-adv-x="1560" />
<glyph unicode="&#x2003;" horiz-adv-x="3121" />
<glyph unicode="&#x2004;" horiz-adv-x="1040" />
<glyph unicode="&#x2005;" horiz-adv-x="780" />
<glyph unicode="&#x2006;" horiz-adv-x="520" />
<glyph unicode="&#x2007;" horiz-adv-x="520" />
<glyph unicode="&#x2008;" horiz-adv-x="390" />
<glyph unicode="&#x2009;" horiz-adv-x="624" />
<glyph unicode="&#x200a;" horiz-adv-x="173" />
<glyph unicode="&#x2010;" d="M-0.5 1110q2.5 25 29.5 35q35 12 70.5 20.5t72.5 12.5q203 16 401.5 28.5t395.5 26.5q66 0 125 1t118 -3q51 -2 101.5 -8t99.5 -13q23 -4 38 -15t19 -34q2 -23 -3 -43t-27 -33q-20 -12 -40 -23t-42 -18q-119 -37 -239 -45t-242 -12q-129 -4 -255 -6t-255 -4h-123t-121 31 q-59 29 -103 61q-23 16 -20.5 41z" />
<glyph unicode="&#x2011;" d="M-0.5 1110q2.5 25 29.5 35q35 12 70.5 20.5t72.5 12.5q203 16 401.5 28.5t395.5 26.5q66 0 125 1t118 -3q51 -2 101.5 -8t99.5 -13q23 -4 38 -15t19 -34q2 -23 -3 -43t-27 -33q-20 -12 -40 -23t-42 -18q-119 -37 -239 -45t-242 -12q-129 -4 -255 -6t-255 -4h-123t-121 31 q-59 29 -103 61q-23 16 -20.5 41z" />
<glyph unicode="&#x2012;" d="M-0.5 1110q2.5 25 29.5 35q35 12 70.5 20.5t72.5 12.5q203 16 401.5 28.5t395.5 26.5q66 0 125 1t118 -3q51 -2 101.5 -8t99.5 -13q23 -4 38 -15t19 -34q2 -23 -3 -43t-27 -33q-20 -12 -40 -23t-42 -18q-119 -37 -239 -45t-242 -12q-129 -4 -255 -6t-255 -4h-123t-121 31 q-59 29 -103 61q-23 16 -20.5 41z" />
<glyph unicode="&#x2013;" horiz-adv-x="1554" d="M-0.5 1110q2.5 25 29.5 35q35 12 70.5 20.5t72.5 12.5q203 16 401.5 28.5t395.5 26.5q66 0 125 1t118 -3q51 -2 101.5 -8t99.5 -13q23 -4 38 -15t19 -34q2 -23 -3 -43t-27 -33q-20 -12 -40 -23t-42 -18q-119 -37 -239 -45t-242 -12q-129 -4 -255 -6t-255 -4h-123t-121 31 q-59 29 -103 61q-23 16 -20.5 41z" />
<glyph unicode="&#x2014;" horiz-adv-x="1599" d="M-0.5 1110q2.5 25 29.5 35q35 12 70.5 20.5t72.5 12.5q203 16 401.5 28.5t395.5 26.5q66 0 125 1t118 -3q51 -2 101.5 -8t99.5 -13q23 -4 38 -15t19 -34q2 -23 -3 -43t-27 -33q-20 -12 -40 -23t-42 -18q-119 -37 -239 -45t-242 -12q-129 -4 -255 -6t-255 -4h-123t-121 31 q-59 29 -103 61q-23 16 -20.5 41z" />
<glyph unicode="&#x2018;" horiz-adv-x="223" d="M6 2245.5q12 46.5 57 74.5q12 8 27.5 10.5t32.5 6.5q12 2 16 -6.5t-2 -18.5q-2 -6 -10 -14q-10 -10 -18.5 -20.5t-18.5 -20.5q-6 -8 -13 -15.5t-1 -17.5q4 -4 13 -5t17 -5q10 0 21 -2q8 -2 17.5 -3t15.5 -3q20 -8 20 -31q0 -10 -7 -22.5t-16.5 -22.5t-20.5 -16.5 t-19 -4.5q-25 4 -50.5 7.5t-43.5 23.5q-8 8 -9 10q-20 49 -8 95.5z" />
<glyph unicode="&#x2019;" horiz-adv-x="266" d="M8 2163q0 10 6 22.5t15.5 23.5t20.5 17t22 4q23 -4 48 -8t46 -24l8 -9q18 -51 6 -96t-57 -74q-12 -8 -27.5 -10t-32.5 -6q-10 -2 -15 6t1 19q4 8 10 14q10 10 19.5 20.5t19.5 20.5q4 6 11.5 13t1.5 18q-4 6 -13.5 7t-17.5 3l-21 4q-10 2 -18 3t-14 3q-18 6 -19 29z" />
<glyph unicode="&#x201c;" horiz-adv-x="456" d="M6 2268q12 46 57 75q12 8 27.5 10t32.5 6q12 2 16 -6t-2 -18q-2 -6 -10 -15q-10 -10 -18.5 -20t-18.5 -21q-6 -8 -13 -15t-1 -17q4 -4 13 -5t17 -6q10 0 21 -2q8 -2 17.5 -3t15.5 -3q20 -8 20 -30q0 -10 -7 -22.5t-16.5 -23t-20.5 -16.5t-19 -4q-25 4 -50.5 7t-43.5 24 q-8 8 -9 10q-20 49 -8 95zM221 2268q12 46 58 75q12 8 27.5 10t31.5 6q10 2 15 -6t-1 -18q-2 -6 -10 -15q-10 -10 -19.5 -20t-17.5 -21q-6 -8 -13 -15t-1 -17q4 -4 13 -5t18 -6q10 0 20 -2q8 -2 17.5 -3t15.5 -3q18 -10 18 -30q0 -10 -6 -22.5t-15.5 -23t-20.5 -16.5t-21 -4 q-23 4 -48.5 7t-45.5 24q-2 4 -4.5 5t-2.5 5q-20 49 -8 95z" />
<glyph unicode="&#x201d;" horiz-adv-x="442" d="M2 2169q0 10 6 22.5t15.5 23.5t20.5 17t22 4q25 -4 49 -8t45 -24l8 -9q18 -51 7 -96t-58 -74q-12 -8 -27.5 -10t-30.5 -6q-12 -2 -16 6t0 19q2 4 5 7l7 7q10 10 18.5 20.5t18.5 20.5q4 6 11.5 13t0.5 18q-4 6 -12 7t-16 3q-12 2 -23 4q-10 2 -18.5 3t-14.5 3 q-18 6 -18 29zM217 2169q0 10 6 22.5t15.5 23.5t20.5 17t22 4q23 -4 48 -8t46 -24l8 -9q18 -51 6 -96t-57 -74q-12 -8 -27.5 -10t-32.5 -6q-10 -2 -15 6t1 19q4 8 10 14q10 10 19.5 20.5t19.5 20.5q4 6 11.5 13t0.5 18q-4 6 -13 7t-17 3l-21 4q-10 2 -18 3t-14 3 q-18 6 -19 29z" />
<glyph unicode="&#x2022;" horiz-adv-x="688" d="M164 1230.5q-4 26.5 12 47.5q12 18 27.5 33.5t32.5 31.5q10 12 21 23.5t26 22.5q37 25 75 32q31 8 59.5 -2t55.5 -26q29 -16 40 -41t1 -52q0 -37 -6 -62.5t-19.5 -42.5t-35 -28.5t-54.5 -19.5q-59 -16 -112.5 -12t-100.5 51q-18 18 -22 44.5z" />
<glyph unicode="&#x202f;" horiz-adv-x="624" />
<glyph unicode="&#x205f;" horiz-adv-x="780" />
<glyph unicode="&#x25fc;" horiz-adv-x="2109" d="M0 0v2109h2109v-2109h-2109z" />
<glyph unicode="&#xfb01;" horiz-adv-x="1914" d="M0 2025q-4 25 13.5 49.5t43.5 26.5q133 12 264.5 27.5t264.5 11.5q14 0 26.5 1t26.5 1q6 47 12 89t11 85q14 123 40.5 240t73.5 229q47 115 150 201q63 51 141 70q41 10 83 16t83 10q68 4 129 -19.5t119 -60.5q35 -23 44 -56.5t19 -68.5q2 -8 2 -15t2 -15 q12 -41 11.5 -79t-7 -76t-13.5 -76t-9 -76q-70 -12 -90 53q-8 23 -13.5 45t-7.5 45q-2 31 -20.5 56.5t-47 42t-63.5 21.5t-67 -5q-31 -10 -52.5 -35t-31.5 -53q-14 -41 -24.5 -81t-16.5 -81q-23 -115 -31 -228q-4 -43 -5 -87t-3 -91q45 -4 87 -7t83 -7q96 -8 190 -15.5 t189 -17.5q47 -4 64.5 -20.5t33.5 -65.5q-16 -12 -31.5 -25.5t-32.5 -25.5q-12 -8 -20 -8h-124.5t-125.5 2q-68 2 -135.5 5t-134.5 7h-39q0 -37 -1 -68.5t1 -64.5q8 -139 16 -275.5t19 -275.5q6 -100 23.5 -197.5t31.5 -195.5q16 -106 31.5 -213t25.5 -215 q6 -66 13.5 -131.5t11.5 -139.5q4 -86 -6 -125.5t-27 -52.5q-18 -14 -41 -4q-16 8 -30.5 13.5t-28.5 15.5q-31 18 -60.5 35.5t-50.5 50.5q-45 72 -78.5 149.5t-58.5 157.5q-41 135 -77 269t-70 270q-31 123 -45.5 245.5t-16.5 249.5q-2 53 -7 105.5t-5 105.5q-4 127 0 256 v51q-6 2 -9.5 3.5t-7.5 1.5q-123 4 -244.5 5t-244.5 5q-27 0 -51.5 3t-50.5 5q-20 4 -23 22zM1434 1114q2 55 1 110.5t-1 110.5q2 35 3 70t3 70q0 33 -1 66.5t1 66.5q2 41 12 82q12 49 58 72.5t92 0.5q16 -8 27 -20t22 -29q18 -29 27.5 -59.5t17.5 -63.5q18 -78 25.5 -154.5 t4.5 -154.5q-2 -53 -1 -103.5t1 -103.5h3q4 -61 4 -121.5t4 -122.5l30 -430q2 -23 2 -42v-42q6 -53 11 -100q4 -41 6 -78t-2 -51q-23 -82 -94 -76q-59 8 -93 44t-57 83q-16 31 -22 60q-6 27 -12.5 51t-10.5 51q-10 109 -21.5 215.5t-19.5 214.5q-8 96 -15 190.5t-5 192.5z " />
<glyph unicode="&#xfb02;" horiz-adv-x="2379" d="M0 2028q-4 27 13.5 50t43.5 27q133 10 264.5 25.5t264.5 13.5q14 -2 26.5 -1t26.5 3q6 45 12 88t11 84q14 123 40.5 240t73.5 231q47 113 150 199q59 49 141 70q41 10 71.5 26.5t71.5 24.5q76 16 167 12t214 -37q47 2 80 -22.5t55 -65.5q47 -92 62.5 -189t19.5 -200 q4 -96 6.5 -190.5t2.5 -190.5q4 -281 0 -561q-2 -96 -6.5 -189.5t-8.5 -187.5q-2 -88 -3 -176t-1 -176q0 -61 2 -123.5t4 -124.5q2 -49 3 -98t1 -98q2 -47 1 -93.5t-1 -95.5q8 10 14.5 20.5t16.5 18.5q16 18 33.5 36.5t38.5 35.5q26 20 55 0q14 -10 12 -23.5t-6 -28.5 q-20 -63 -53 -119.5t-68 -111.5q-41 -63 -90 -88t-92 -29q-51 -6 -100 9q-31 37 -49.5 78.5t-28.5 88.5q-25 117 -34 235t-13 237q-4 111 -9 218t-5 218q0 154 2 304t4 302q2 141 1 282.5t3 282.5q2 121 7 240t9 239q-2 31 -26.5 46.5t-59.5 20.5t-76 0t-73 -15 q-31 -10 -52.5 -35t-31.5 -53q-29 -80 -41 -162q-20 -111 -31 -226q-4 -45 -5 -89t-3 -91q23 -2 30 -3t11 -1t11 -1t28 -3q47 -4 67.5 -4t35.5 1t35.5 0t67.5 -5q29 -25 41 -51q10 -25 9.5 -56.5t-35.5 -68.5l-51 4h-8.5t-26.5 2l-92 4q-43 2 -111 6q16 -2 28.5 -2t22.5 -2 l-55 4q-4 0 -3 0t2 -1t2 -1t-5 0q0 -35 -1 -67.5t1 -65.5q8 -137 16 -274.5t19 -276.5q6 -98 23.5 -195.5t31.5 -195.5q16 -109 31.5 -215.5t25.5 -214.5q6 -66 13.5 -131.5t11.5 -139.5q4 -86 -6 -125.5t-27 -52.5q-18 -14 -41 -4q-16 8 -30.5 14.5t-28.5 14.5 q-31 18 -60.5 35.5t-50.5 52.5q-45 72 -78.5 148.5t-58.5 156.5q-41 135 -77 269.5t-70 271.5q-31 123 -45.5 244.5t-16.5 248.5q-2 53 -7 105.5t-5 105.5q-2 127 0 256v54q-6 0 -9.5 1t-7.5 1q-123 4 -244.5 5t-244.5 5q-27 0 -51.5 3t-50.5 5q-18 4 -23 23zM1120 1964 q33 -2 56.5 -3t74.5 -3q-16 0 -32.5 1t-38.5 3zM1251 1958h21l35 -2q2 -2 6 -2q-14 2 -30.5 2t-31.5 2zM1313 1954h14.5t30.5 -2h-15q-6 0 -13 1t-17 1z" />
</font>
</defs>
</svg>
